<?xml version="1.0" encoding="utf-8"?>
<!-- Generator: Adobe Illustrator 16.0.0, SVG Export Plug-In . SVG Version: 6.00 Build 0)  -->
<!DOCTYPE svg PUBLIC "-//W3C//DTD SVG 1.1//EN" "http://www.w3.org/Graphics/SVG/1.1/DTD/svg11.dtd">
<svg version="1.1" id="Layer_1" xmlns="http://www.w3.org/2000/svg" xmlns:xlink="http://www.w3.org/1999/xlink" x="0px" y="0px"
	 width="40px" height="40px" viewBox="0 0 40 40" enable-background="new 0 0 40 40" xml:space="preserve">
<path fill="#97AAC3" d="M16.746,13.352c-0.275,1.101-0.536,2.139-0.804,3.207c-1.728,0-3.403-0.002-5.077,0.001
	c-1.063,0.001-1.368,0.229-1.64,1.247c-0.305,1.145-0.607,2.29-0.887,3.441c-0.212,0.876,0.081,1.238,1.009,1.246
	c1.703,0.016,3.406,0.009,5.109,0.005c1.182-0.002,1.677-0.325,1.983-1.452c0.47-1.731,0.877-3.479,1.307-5.219
	c0.556-2.251,1.106-4.502,1.666-6.786c2.081,0,4.128,0,6.26,0c-0.42,1.738-0.825,3.446-1.244,5.151
	c-0.68,2.765-1.362,5.528-2.053,8.291c-0.492,1.967-1.757,3.086-3.838,3.11c-5.244,0.062-10.49,0.052-15.734,0.019
	c-1.553-0.009-2.269-0.876-2.042-2.476c0.184-1.3,0.562-2.574,0.863-3.858c0.199-0.848,0.417-1.691,0.618-2.538
	c0.536-2.249,2.021-3.421,4.39-3.428c3.109-0.01,6.218-0.005,9.328-0.003C16.195,13.309,16.43,13.334,16.746,13.352z"/>
<path fill="#97AAC3" d="M13.451,30.955c0.499-1.405,0.964-2.718,1.443-4.068c1.438,0,2.84,0.021,4.241-0.006
	c2.144-0.039,3.972-1.215,4.434-2.842c0.259-0.912,0.464-1.84,0.694-2.759c0.608-2.429,1.226-4.854,1.817-7.287
	c0.124-0.509,0.33-0.72,0.919-0.703c1.746,0.049,3.493,0.018,5.351,0.018c-0.391,1.589-0.748,3.068-1.116,4.545
	c-0.622,2.505-1.208,5.021-1.886,7.512c-0.669,2.465-1.993,4.442-4.635,5.265c-0.56,0.174-1.159,0.306-1.742,0.312
	C19.839,30.972,16.707,30.955,13.451,30.955z"/>
<path fill="#97AAC3" d="M30.956,25.633c0.485-2.021,0.937-3.912,1.396-5.803c0.479-1.969,0.979-3.934,1.433-5.909
	c0.11-0.48,0.307-0.635,0.809-0.626c1.775,0.029,3.551,0.011,5.407,0.011c-0.262,1.129-0.494,2.177-0.747,3.221
	c-0.684,2.814-1.389,5.622-2.049,8.441c-0.118,0.503-0.302,0.688-0.847,0.678C34.607,25.61,32.855,25.633,30.956,25.633z"/>
</svg>
