<?xml version="1.0" encoding="utf-8"?>
<!-- Generator: Adobe Illustrator 16.0.0, SVG Export Plug-In . SVG Version: 6.00 Build 0)  -->
<!DOCTYPE svg PUBLIC "-//W3C//DTD SVG 1.1//EN" "http://www.w3.org/Graphics/SVG/1.1/DTD/svg11.dtd">
<svg version="1.1" id="Layer_1" xmlns="http://www.w3.org/2000/svg" xmlns:xlink="http://www.w3.org/1999/xlink" x="0px" y="0px"
	 width="40px" height="40px" viewBox="0 0 40 40" enable-background="new 0 0 40 40" xml:space="preserve">
<path fill="#97AAC3" d="M0,17.978c1.491-1.912,3.327-3.298,4.949-5.065c-0.898-0.21-1.701-0.374-2.486-0.596
	c-0.33-0.093-0.624-0.313-0.934-0.476c0.243-0.254,0.445-0.574,0.734-0.753c1.936-1.204,3.89-2.379,5.969-3.643
	c-0.76-0.575-1.468-1.08-2.137-1.632C5.855,5.613,5.708,5.3,5.519,5.04C5.83,4.926,6.136,4.736,6.454,4.712
	c2.054-0.155,4.111-0.27,6.166-0.408c0.367-0.025,0.73-0.095,1.207-0.16c-0.284-0.623-0.548-1.14-0.755-1.678
	c-0.107-0.28-0.248-0.687-0.125-0.875c0.115-0.176,0.575-0.233,0.851-0.179C16,1.847,18.195,2.32,20.394,2.778
	c0.995,0.208,1.051,0.168,1.284-0.832c0.103-0.443,0.24-0.88,0.316-1.327c0.12-0.718,0.507-0.744,1.023-0.42
	c1.264,0.792,2.567,1.531,3.766,2.412c1.93,1.419,3.818,2.897,5.661,4.428c0.837,0.694,1.473,1.626,2.286,2.353
	c1.126,1.005,1.72,2.333,2.427,3.603c1.268,2.276,1.841,4.701,1.769,7.313c-0.017,0.599,0.319,1.224,0.553,1.812
	c0.887,2.234,0.22,5.006-1.488,6.086c-1.559,0.984-3.223,1.225-4.979,0.746c-0.179-0.047-0.354-0.496-0.354-0.758
	c0-2.445-1.01-4.43-3.068-5.633c-1.588-0.928-3.372-1.62-5.156-2.093c-2.392-0.637-4.85-1.112-7.31-1.382
	c-3.772-0.412-7.568-0.616-11.357-0.851c-1.681-0.104-3.371-0.065-5.056-0.1C0.537,18.131,0.365,18.061,0,17.978z M34.052,17.283
	c-0.135,1.566,0.285,2.45,1.239,2.671C34.851,19.001,34.451,18.142,34.052,17.283z"/>
<path fill="#FFFFFF" d="M34.027,15.439c0.398,0.86,2.248,5.092,2.69,6.043C33.677,20.78,33.693,19.302,34.027,15.439z"/>
<text transform="matrix(1.0759 0 0 1 1.999 28.6699)"><tspan x="0" y="0" fill="#97AAC3" font-family="'MyriadPro-Regular'" font-size="7.8137">Extreme</tspan><tspan x="0" y="9.377" fill="#2852A0" font-family="'MyriadPro-Regular'" font-size="7.8137"> Vision</tspan></text>
</svg>
