<?xml version="1.0" encoding="utf-8"?>
<!-- Generator: Adobe Illustrator 21.0.0, SVG Export Plug-In . SVG Version: 6.00 Build 0)  -->
<svg version="1.1" id="Layer_1" xmlns="http://www.w3.org/2000/svg" xmlns:xlink="http://www.w3.org/1999/xlink" x="0px" y="0px"
	 viewBox="0 0 390 600" style="enable-background:new 0 0 390 600;" xml:space="preserve">
<style type="text/css">
	.st0{fill:#A68137;}
	.st1{fill:#003974;}
</style>
<g>
	<g>
		<path class="st0" d="M275.4,125.8c2.8-3.5,3.8-9.7,3.8-9.7H112c0,0,2.1,6.9,3.8,9.7H275.4z"/>
		<path class="st0" d="M265.7,139.9c3.1-2.8,6.3-8.3,6.3-8.3h-153c0,0,1.7,4.2,5.5,8.3H265.7z"/>
		<path class="st0" d="M253.6,152.8c3.8-2.1,6.9-6.3,6.9-6.3H129.7c0,0,3.1,3.5,6.2,6.3H253.6z"/>
		<path class="st0" d="M238.3,164.9c3.8-1.4,8-4.9,8-4.9H144.2c0,0,0,0.7,7.2,4.9H238.3z"/>
		<path class="st0" d="M163.2,172.5c0,0,10.8,6.3,31.9,6.3c21.1,0,34.6-6.3,34.6-6.3H163.2z"/>
		<path class="st1" d="M161.5,186.7c0,0,12.8,0.7,20.4,6.6c7.3,6.3,12.8,16.6,12.8,16.6s4.5-10,11.8-15.2c7.3-5.6,19-8,19-8h131.9
			l26,38.4H265c0,0-8.3,0.3-20.8,7.6c-6.6,3.7-11.5,10.3-11.5,10.3s-1,3.1-2.4,4.8c-1.4,1.8-2.4,3.2-4.1,3.8
			c-1.8,0.7-1.4,0.3-1.4,0.3h-61.6c0,0-2.5-1-3.8-3.1c-1.4-2.1-0.4-1.4-1.7-3c-1-1.7-3.5-6.3-12.8-12.5c-9.7-6.3-19-6.9-19-6.9H5.4
			l26.2-39.8L161.5,186.7L161.5,186.7z"/>
		<path class="st1" d="M68.3,241v196.6c0,0,0.7,17.4,15.3,40.9c14.5,23.5,35.6,34.3,35.6,34.3l16.6-26c0,0-14.5-8.7-25.6-25.3
			c-10.7-16.6-10.7-30.8-10.7-30.8V241L68.3,241L68.3,241z"/>
		<path class="st1" d="M291.3,240.3V430c0,0-2.4,19.1-11.4,32.6c-9,13.8-23.9,24.9-23.9,24.9l16,25.6c0,0,24.2-17.6,35.9-36.3
			c11.8-18.7,14.6-46.7,14.6-46.7V240.3H291.3z"/>
		<path class="st1" d="M18.9,241v197.3c0,0,2,30.5,21.1,62.3c19.1,31.8,53.7,54,53.7,54l16.3-25.9c0,0-22.2-11.8-39.8-38.8
			c-18.1-27.3-19-52.3-19-52.3V241L18.9,241L18.9,241z"/>
		<path class="st0" d="M161.5,261.8v208.4c0,0-0.8,0.7-1,3.8c-0.4,3.2-2.4,5.3-2.4,5.3L88.5,594.4h213.2l-69.6-117.7l-2.1-5.2
			l-0.7-5.5V262.1h-26v211.5c0,0,0,3,1,5.5c0.6,2.4,2.1,6.2,2.1,6.2l42.9,70.6H140.7l42.2-70.3c0,0,1.4-2.4,2.4-5.9
			c0.7-3.1,1-6.2,1-6.2V261.8H161.5z"/>
		<path class="st1" d="M339.4,240.3v193.9c0,0-0.3,24.9-18.7,53.6c-18.4,28.8-39.5,40.9-39.5,40.9l15.6,26.3
			c0,0,31.8-20.1,51.9-51.9c19.7-31.9,22.1-68.9,22.1-68.9V240.3H339.4z"/>
		<path class="st0" d="M111,110.5c0,0-10.7-58.5,32.2-87.6c0,0,19.4-18,50.8-18c33.6,0,53,17.6,53,17.6
			c46.7,34.2,32.9,87.9,32.9,87.9L111,110.5L111,110.5z"/>
	</g>
</g>
</svg>
