<?xml version="1.0" encoding="utf-8"?>
<!-- Generator: Adobe Illustrator 16.0.0, SVG Export Plug-In . SVG Version: 6.00 Build 0)  -->
<!DOCTYPE svg PUBLIC "-//W3C//DTD SVG 1.1//EN" "http://www.w3.org/Graphics/SVG/1.1/DTD/svg11.dtd">
<svg version="1.1" id="Layer_1" xmlns="http://www.w3.org/2000/svg" xmlns:xlink="http://www.w3.org/1999/xlink" x="0px" y="0px"
	 width="40px" height="40px" viewBox="0 0 40 40" enable-background="new 0 0 40 40" xml:space="preserve">
<path fill="#97AAC3" d="M18.729,22.33c0.066-0.424,0.109-0.593,0.115-0.757c0.091-2.692,0.147-5.382,0.271-8.071
	c0.195-4.22-0.237-8.336-1.777-12.308c-0.246-0.635-0.544-0.791-1.181-0.715c-3.264,0.393-5.438,3.136-5.076,6.445
	c0.204,1.859,0.743,3.629,1.646,5.25c1.77,3.177,3.624,6.308,5.448,9.454C18.285,21.816,18.444,21.974,18.729,22.33z"/>
<path fill="#97AAC3" d="M20.893,22.332c0.283-0.343,0.448-0.496,0.553-0.681c1.851-3.193,3.754-6.357,5.514-9.598
	c1.045-1.925,1.688-4.015,1.607-6.262c-0.101-2.842-2.609-5.31-5.456-5.313c-0.229,0-0.594,0.226-0.667,0.428
	c-0.931,2.583-1.86,5.189-1.862,7.97c-0.003,4.177,0.117,8.354,0.189,12.531C20.775,21.632,20.83,21.856,20.893,22.332z"/>
<path fill="#97AAC3" d="M16.977,23.233c0.051-0.049,0.102-0.097,0.152-0.146c-0.169-0.393-0.302-0.805-0.513-1.173
	c-2.062-3.6-4.085-7.225-6.233-10.774C9.393,9.501,8.171,8,7.016,6.465C6.47,5.742,6.312,5.727,5.736,6.448
	C5.053,7.304,4.365,8.191,3.886,9.167c-1.145,2.333-0.677,4.724,1.176,6.555c0.489,0.485,1.008,0.967,1.588,1.331
	c2.993,1.878,6.007,3.725,9.023,5.566C16.081,22.866,16.541,23.031,16.977,23.233z"/>
<path fill="#97AAC3" d="M22.442,23.317c0.528-0.237,0.845-0.345,1.13-0.51c2.392-1.391,4.801-2.747,7.152-4.204
	c1.235-0.766,2.403-1.661,3.523-2.591c1.107-0.92,1.861-2.087,2.04-3.582c0.273-2.287-0.754-4.075-2.131-5.727
	C33.3,5.677,33.201,5.69,32.356,6.775c-3.773,4.854-6.836,10.146-9.573,15.637C22.675,22.632,22.609,22.87,22.442,23.317z"/>
<path fill="#97AAC3" d="M0.928,15.692c-0.092,0.274-0.177,0.456-0.214,0.647c-0.854,4.362,2.08,8.215,6.528,8.408
	c2.738,0.121,5.484,0.018,8.227,0.007c0.178,0,0.355-0.073,0.679-0.143C11.214,21.226,6.092,18.499,0.928,15.692z"/>
<path fill="#97AAC3" d="M23.468,24.627c0.283,0.067,0.379,0.109,0.475,0.109c2.896,0.007,5.805,0.173,8.687-0.027
	c4.014-0.279,6.457-3.149,6.388-7.161c-0.011-0.593-0.128-1.184-0.209-1.912C33.537,18.508,28.407,21.228,23.468,24.627z"/>
<path fill="#97AAC3" d="M15.744,25.727c-3.82,0.109-7.639,0.221-11.457,0.33c-0.044,0.069-0.087,0.137-0.132,0.203
	c0.502,0.659,0.963,1.357,1.515,1.972c1.326,1.479,2.918,1.845,4.801,1.13C12.5,28.589,14.158,27.282,15.744,25.727z"/>
<path fill="#97AAC3" d="M23.802,25.727c1.102,1.361,3.933,3.2,5.635,3.719c2.48,0.758,5.194-0.764,5.942-3.389
	C31.555,25.947,27.747,25.838,23.802,25.727z"/>
<path fill="#97AAC3" d="M24.528,33.071c0.056-0.01,0.113-0.019,0.169-0.027c0.338,1.018,0.651,2.048,1.035,3.048
	c0.081,0.211,0.411,0.438,0.641,0.451c0.306,0.017,0.84-0.093,0.902-0.275c0.53-1.544,0.975-3.117,1.445-4.687
	c-1.182-0.269-1.229-0.242-1.509,0.802c-0.21,0.779-0.421,1.561-0.634,2.343c-0.426-0.865-0.715-1.713-0.95-2.575
	c-0.134-0.484-0.328-0.74-0.894-0.707c-0.514,0.032-0.925,0.009-1.085,0.667c-0.21,0.858-0.54,1.685-0.819,2.527
	c-0.38-0.752-0.583-1.508-0.789-2.267c-0.279-1.024-0.33-1.053-1.525-0.79c0.433,1.474,0.882,2.938,1.281,4.413
	c0.126,0.465,0.361,0.603,0.812,0.589c0.459-0.013,0.816-0.018,0.971-0.597C23.844,35.001,24.206,34.043,24.528,33.071z"/>
<path fill="#97AAC3" d="M10.217,31.551c-1.148-0.176-1.261-0.146-1.268,0.42c-0.013,1.024-0.054,2.059,0.069,3.072
	c0.053,0.443,0.387,0.965,0.753,1.239c0.841,0.623,2.809,0.492,3.658-0.152c0.278-0.209,0.699-0.482,0.715-0.747
	c0.074-1.288,0.033-2.58,0.033-3.871c-0.507,0-0.957,0-1.488,0c0,0.714,0,1.376,0,2.038c-0.003,1.935-0.155,2.212-1.207,2.208
	c-1.069-0.005-1.259-0.331-1.265-2.181C10.216,32.914,10.217,32.252,10.217,31.551z"/>
<path fill="#97AAC3" d="M3.768,33.435c0-0.684,0-1.286,0-1.917c-0.456,0-0.822,0-1.19,0c0,1.708,0,3.355,0,5.004
	c0.417,0,0.765,0,1.204,0c0-0.723,0-1.401,0-2.114c0.866,0,1.64,0,2.479,0c0,0.416,0,0.771,0,1.127
	c0.001,1.147,0.092,1.216,1.299,0.896c0-1.489-0.008-2.995,0.004-4.503c0.004-0.533-0.371-0.517-0.681-0.447
	c-0.227,0.051-0.561,0.257-0.591,0.436c-0.082,0.486-0.028,0.995-0.028,1.52C5.386,33.435,4.648,33.435,3.768,33.435z"/>
<path fill="#97AAC3" d="M31.041,34.354c1.12,0,2.233,0,3.406,0c-0.018-0.342-0.029-0.584-0.047-0.92c-1.144,0-2.228,0-3.363,0
	c0.152-0.723,0.512-1.02,1.151-1.006c0.73,0.016,1.464,0.006,2.259,0.006c-0.022-0.37-0.038-0.607-0.058-0.902
	c-0.353,0-0.632-0.004-0.91,0c-0.591,0.005-1.183-0.024-1.768,0.031c-1.188,0.115-2.066,1.132-2.098,2.364
	c-0.029,1.303,0.851,2.457,2.064,2.566c0.887,0.08,1.783,0.016,2.72,0.016c0-0.317,0-0.558,0-0.903c-0.743,0-1.453,0.01-2.164-0.002
	C31.414,35.591,31.143,35.316,31.041,34.354z"/>
<path fill="#97AAC3" d="M37.138,36.53c0-1.531-0.014-2.963,0.009-4.392c0.007-0.471-0.099-0.685-0.631-0.695
	c-0.57-0.01-0.697,0.215-0.679,0.727c0.03,0.817,0.008,1.637,0.008,2.458c0,0.626,0,1.253,0,1.902
	C36.331,36.53,36.679,36.53,37.138,36.53z"/>
<path fill="#97AAC3" d="M18.729,22.33c-0.285-0.356-0.444-0.514-0.553-0.7c-1.824-3.146-3.678-6.277-5.448-9.454
	c-0.902-1.622-1.442-3.391-1.646-5.25c-0.362-3.31,1.812-6.053,5.076-6.445c0.636-0.077,0.935,0.08,1.18,0.714
	c1.54,3.972,1.972,8.088,1.777,12.308c-0.124,2.688-0.181,5.379-0.272,8.071C18.838,21.737,18.795,21.906,18.729,22.33z"/>
<path fill="#97AAC3" d="M20.893,22.332c-0.063-0.476-0.118-0.7-0.122-0.922c-0.072-4.178-0.192-8.356-0.19-12.533
	c0.002-2.781,0.933-5.387,1.863-7.97c0.073-0.203,0.438-0.428,0.667-0.428c2.847,0.003,5.355,2.471,5.456,5.313
	c0.08,2.248-0.562,4.337-1.608,6.262c-1.76,3.24-3.662,6.404-5.513,9.597C21.341,21.836,21.176,21.989,20.893,22.332z"/>
<path fill="#97AAC3" d="M16.977,23.233c-0.436-0.202-0.896-0.367-1.304-0.615c-3.016-1.841-6.03-3.688-9.023-5.566
	c-0.58-0.363-1.099-0.846-1.588-1.331C3.209,13.891,2.741,11.5,3.886,9.167c0.479-0.975,1.167-1.863,1.851-2.719
	c0.576-0.721,0.734-0.706,1.279,0.017C8.171,8,9.393,9.501,10.383,11.14c2.147,3.549,4.17,7.174,6.233,10.774
	c0.211,0.368,0.344,0.78,0.513,1.173C17.079,23.137,17.028,23.185,16.977,23.233z"/>
<path fill="#97AAC3" d="M22.442,23.317c0.167-0.447,0.232-0.686,0.341-0.905c2.737-5.491,5.8-10.782,9.573-15.637
	c0.845-1.085,0.943-1.098,1.801-0.071c1.377,1.652,2.404,3.44,2.131,5.727c-0.179,1.494-0.933,2.662-2.04,3.582
	c-1.12,0.93-2.288,1.825-3.523,2.591c-2.352,1.457-4.761,2.813-7.152,4.204C23.287,22.973,22.971,23.08,22.442,23.317z"/>
<path fill="#97AAC3" d="M0.928,15.692c5.164,2.807,10.286,5.533,15.219,8.919c-0.324,0.069-0.501,0.143-0.679,0.143
	c-2.743,0.011-5.489,0.114-8.227-0.007c-4.448-0.192-7.383-4.045-6.528-8.408C0.751,16.149,0.836,15.966,0.928,15.692z"/>
<path fill="#97AAC3" d="M23.468,24.627c4.939-3.399,10.07-6.119,15.34-8.99c0.081,0.728,0.198,1.318,0.209,1.912
	c0.069,4.011-2.374,6.881-6.388,7.161c-2.882,0.2-5.791,0.034-8.687,0.027C23.847,24.736,23.751,24.694,23.468,24.627z"/>
<path fill="#97AAC3" d="M15.744,25.727c-1.586,1.556-3.243,2.862-5.273,3.635c-1.883,0.715-3.476,0.349-4.801-1.13
	c-0.551-0.614-1.012-1.312-1.515-1.972c0.044-0.066,0.088-0.134,0.132-0.203C8.105,25.947,11.924,25.836,15.744,25.727z"/>
<path fill="#97AAC3" d="M23.802,25.727c3.945,0.111,7.753,0.221,11.577,0.33c-0.748,2.625-3.461,4.146-5.942,3.389
	C27.734,28.927,24.903,27.088,23.802,25.727z"/>
<path fill="#97AAC3" d="M24.528,33.071c-0.322,0.972-0.685,1.93-0.948,2.915c-0.154,0.579-0.511,0.584-0.971,0.597
	c-0.451,0.014-0.686-0.124-0.812-0.587c-0.398-1.478-0.848-2.941-1.28-4.415c1.196-0.263,1.245-0.234,1.524,0.79
	c0.206,0.759,0.409,1.515,0.79,2.269c0.279-0.845,0.608-1.671,0.818-2.529c0.16-0.656,0.571-0.635,1.085-0.665
	c0.566-0.035,0.76,0.221,0.894,0.705c0.235,0.864,0.524,1.71,0.95,2.575c0.213-0.78,0.424-1.563,0.634-2.343
	c0.28-1.044,0.327-1.07,1.509-0.802c-0.471,1.57-0.915,3.143-1.444,4.687c-0.063,0.183-0.598,0.294-0.903,0.275
	c-0.229-0.013-0.559-0.24-0.641-0.451c-0.384-1-0.697-2.03-1.035-3.048C24.642,33.053,24.584,33.062,24.528,33.071z"/>
<path fill="#97AAC3" d="M10.217,31.551c0,0.701-0.001,1.363,0,2.026c0.005,1.85,0.196,2.176,1.265,2.181
	c1.052,0.004,1.203-0.273,1.207-2.208c0.001-0.662,0-1.324,0-2.038c0.53,0,0.98,0,1.488,0c0,1.291,0.042,2.583-0.033,3.871
	c-0.016,0.265-0.437,0.536-0.714,0.747c-0.849,0.643-2.817,0.775-3.658,0.152c-0.367-0.274-0.701-0.796-0.754-1.239
	c-0.122-1.014-0.082-2.048-0.069-3.072C8.956,31.404,9.069,31.375,10.217,31.551z"/>
<path fill="#97AAC3" d="M3.768,33.435c0.88,0,1.619,0,2.495,0c0-0.524-0.053-1.033,0.028-1.52c0.03-0.179,0.364-0.385,0.591-0.436
	c0.311-0.069,0.685-0.086,0.681,0.447c-0.012,1.508-0.004,3.014-0.004,4.503c-1.207,0.32-1.298,0.252-1.299-0.896
	c0-0.356,0-0.711,0-1.127c-0.839,0-1.613,0-2.479,0c0,0.713,0,1.392,0,2.114c-0.439,0-0.788,0-1.204,0c0-1.648,0-3.296,0-5.004
	c0.368,0,0.734,0,1.191,0C3.768,32.148,3.768,32.751,3.768,33.435z"/>
<g id="XMLID_1_">
	<g>
		<path fill="#FFFFFF" d="M18.443,34.504c-0.617,0-1.07,0-1.634,0c0.259-0.584,0.486-1.103,0.792-1.796
			C17.919,33.385,18.157,33.894,18.443,34.504z"/>
		<path fill="#97AAC3" d="M16.854,31.702c0.193-0.384,1.352-0.374,1.55,0.014c0.804,1.56,1.569,3.14,2.374,4.762
			c-0.829,0.191-1.451,0.21-1.744-0.681c-0.057-0.172-0.365-0.334-0.574-0.361c-0.428-0.055-0.874,0.016-1.305-0.026
			c-0.561-0.057-0.893,0.119-1.103,0.675c-0.215,0.574-0.379,0.587-1.512,0.386C15.315,34.863,16.063,33.273,16.854,31.702z
			 M16.81,34.504c0.563,0,1.017,0,1.634,0c-0.286-0.61-0.524-1.119-0.842-1.796C17.295,33.401,17.069,33.92,16.81,34.504z"/>
	</g>
</g>
<path fill="#97AAC3" d="M31.041,34.354c0.102,0.962,0.373,1.236,1.193,1.25c0.711,0.012,1.421,0.002,2.164,0.002
	c0,0.346,0,0.586,0,0.903c-0.937,0-1.833,0.064-2.72-0.016c-1.214-0.109-2.094-1.264-2.064-2.566
	c0.031-1.232,0.909-2.249,2.098-2.364c0.585-0.056,1.177-0.026,1.768-0.031c0.278-0.004,0.558,0,0.91,0
	c0.02,0.295,0.036,0.532,0.059,0.902c-0.796,0-1.529,0.01-2.26-0.006c-0.639-0.014-0.999,0.283-1.151,1.006c1.136,0,2.22,0,3.363,0
	c0.018,0.336,0.029,0.578,0.047,0.92C33.274,34.354,32.161,34.354,31.041,34.354z"/>
<path fill="#97AAC3" d="M37.138,36.53c-0.459,0-0.807,0-1.293,0c0-0.649,0-1.276,0-1.902c0-0.821,0.022-1.641-0.008-2.458
	c-0.019-0.512,0.108-0.736,0.679-0.727c0.532,0.011,0.638,0.225,0.631,0.695C37.124,33.567,37.138,34.999,37.138,36.53z"/>
</svg>
