<?xml version="1.0" encoding="UTF-8"?>
<svg xmlns="http://www.w3.org/2000/svg" xmlns:xlink="http://www.w3.org/1999/xlink" width="252pt" height="252pt" viewBox="0 0 252 252" version="1.1">
<g id="surface1">
<path style=" stroke:none;fill-rule:nonzero;fill:rgb(20%,17.254902%,16.862745%);fill-opacity:1;" d="M 107.402344 244.085938 C 64.054688 238.683594 21.273438 200.273438 11.113281 157.742188 C -0.789062 111.445312 13.957031 64.96875 50.554688 34.09375 C 83.882812 5.097656 139.667969 -1.40625 178.824219 19.523438 C 199.644531 29.613281 220.289062 49.15625 231.054688 69.980469 C 250.101562 103.023438 249.671875 152.980469 229.632812 185.457031 C 203.765625 228.808594 157.363281 251.015625 107.402344 244.085938 Z M 239.9375 72.113281 C 226.542969 42.476562 195.949219 15.9375 165.675781 6.734375 C 116.855469 -10.039062 64.90625 5.5625 31.367188 43.332031 C 4.789062 73.816406 -6.40625 115.070312 3.652344 156.320312 C 12.144531 200.167969 55.492188 241.703125 99.230469 249.414062 C 110.070312 251.832031 121.757812 252.152344 133.699219 251.902344 C 171.042969 249.664062 203.980469 232.148438 227.5 201.09375 C 254.042969 167.371094 260.296875 110.699219 239.9375 72.113281 Z M 239.9375 72.113281 "/>
<path style=" stroke:none;fill-rule:nonzero;fill:rgb(20%,17.254902%,16.862745%);fill-opacity:1;" d="M 110.601562 15.617188 C 111.207031 15.722656 112.023438 15.332031 112.378906 15.96875 C 111.382812 17.320312 109.285156 17.640625 107.757812 18.457031 C 107.9375 18.246094 108.222656 18.066406 108.113281 17.746094 C 108.113281 17.746094 107.757812 17.390625 107.757812 17.390625 C 106.445312 18.210938 105.308594 19.417969 103.851562 19.878906 C 104.0625 18.636719 105.484375 18.101562 105.628906 16.679688 C 105.199219 15.472656 102.855469 15.542969 103.851562 14.195312 C 107.617188 12.523438 107.15625 19.664062 110.601562 15.617188 Z M 110.601562 15.617188 "/>
<path style=" stroke:none;fill-rule:nonzero;fill:rgb(20%,17.254902%,16.862745%);fill-opacity:1;" d="M 158.214844 15.96875 C 157.964844 18.421875 153.132812 17.996094 155.371094 20.589844 C 154.734375 20.839844 153.703125 21.585938 152.53125 21.300781 C 153.167969 21.335938 153.488281 20.589844 153.949219 20.234375 C 153.417969 18.8125 155.125 18.351562 155.726562 17.390625 C 155.726562 17.390625 155.371094 17.035156 155.371094 17.035156 C 152.601562 17.605469 150.929688 21.867188 147.554688 19.878906 C 150.648438 17.746094 154.199219 16.824219 157.503906 15.261719 C 157.503906 15.261719 158.214844 15.96875 158.214844 15.96875 Z M 158.214844 15.96875 "/>
<path style=" stroke:none;fill-rule:nonzero;fill:rgb(20%,17.254902%,16.862745%);fill-opacity:1;" d="M 111.3125 21.300781 C 111.738281 23.007812 109.75 21.90625 109.179688 22.722656 C 108.257812 22.117188 109.960938 20.625 108.113281 20.945312 C 107.476562 23.714844 104.417969 23.679688 102.785156 25.5625 C 102.785156 25.5625 102.074219 25.5625 102.074219 25.5625 C 102.25 23.964844 104.347656 23.113281 104.917969 21.65625 C 106.125 22.828125 107.9375 21.121094 109.179688 20.234375 C 110.035156 20.199219 110.742188 20.554688 111.3125 21.300781 Z M 111.3125 21.300781 "/>
<path style=" stroke:none;fill-rule:nonzero;fill:rgb(20%,17.254902%,16.862745%);fill-opacity:1;" d="M 155.371094 22.722656 C 154.414062 26.027344 152.957031 29.117188 152.527344 32.671875 C 152.066406 32.5625 151.355469 32.953125 151.109375 32.316406 C 150.894531 31.496094 152.457031 31.144531 152.527344 30.183594 C 152.136719 27.519531 154.980469 25.28125 153.59375 23.078125 C 152.777344 23.539062 151.710938 23.503906 151.109375 24.5 C 151.035156 25.636719 151.109375 26.703125 152.175781 27.339844 C 150.46875 28.585938 150.824219 30.964844 149.332031 31.960938 C 148.976562 30.824219 150.183594 29.472656 148.621094 28.40625 C 148.871094 27.589844 150.148438 26.738281 149.332031 25.917969 C 147.339844 26.773438 148.335938 28.832031 147.554688 30.183594 C 146.488281 30.503906 146.667969 29.082031 146.488281 28.40625 C 146.628906 27.019531 147.519531 25.992188 148.265625 24.855469 C 149.933594 25.101562 151.285156 22.4375 153.238281 22.367188 C 153.949219 22.472656 154.875 22.082031 155.371094 22.722656 Z M 155.371094 22.722656 "/>
<path style=" stroke:none;fill-rule:nonzero;fill:rgb(20%,17.254902%,16.862745%);fill-opacity:1;" d="M 145.066406 28.050781 C 143.824219 28.550781 143.683594 27.304688 143.292969 26.628906 C 143.292969 26.628906 143.292969 24.144531 143.292969 24.144531 C 144.214844 24.996094 145.636719 26.273438 145.066406 28.050781 Z M 145.066406 28.050781 "/>
<path style=" stroke:none;fill-rule:nonzero;fill:rgb(20%,17.254902%,16.862745%);fill-opacity:1;" d="M 109.535156 26.628906 C 109.855469 27.625 109.039062 28.121094 108.46875 28.761719 C 110.78125 31.25 114.011719 32.992188 117.351562 33.738281 C 114.867188 33.949219 111.597656 35.941406 109.535156 32.671875 C 109.324219 31.570312 108.71875 30.609375 107.757812 29.828125 C 106.125 32.28125 104.277344 34.980469 101.363281 35.867188 C 103.351562 33.949219 105.839844 31.605469 106.339844 28.761719 C 106.339844 28.761719 103.851562 25.917969 103.851562 25.917969 C 105.128906 25.917969 105.804688 27.304688 107.046875 27.339844 C 107.046875 27.339844 107.757812 25.207031 107.757812 25.207031 C 108.824219 25.171875 109.25 25.707031 109.535156 26.628906 Z M 109.535156 26.628906 "/>
<path style=" stroke:none;fill-rule:nonzero;fill:rgb(20%,17.254902%,16.862745%);fill-opacity:1;" d="M 145.066406 31.25 C 143.789062 31.285156 144.535156 29.402344 144.355469 29.117188 C 145.351562 29.507812 145.140625 30.859375 145.066406 31.25 Z M 145.066406 31.25 "/>
<path style=" stroke:none;fill-rule:nonzero;fill:rgb(20%,17.254902%,16.862745%);fill-opacity:1;" d="M 155.371094 35.867188 C 154.449219 37.042969 152.421875 37.042969 151.109375 38 C 147.839844 35.941406 145.210938 32.316406 141.515625 31.25 C 141.515625 31.25 141.160156 30.539062 141.160156 30.539062 C 146.132812 31.78125 149.972656 36.757812 155.371094 35.867188 Z M 155.371094 35.867188 "/>
<path style=" stroke:none;fill-rule:nonzero;fill:rgb(20%,17.254902%,16.862745%);fill-opacity:1;" d="M 66.1875 33.027344 C 66.222656 34.519531 65.15625 35.546875 64.054688 36.578125 C 64.160156 36.117188 63.769531 35.40625 64.410156 35.15625 C 63.734375 33.308594 61.851562 34.375 60.5 34.09375 C 61.175781 33.308594 62.5625 32.742188 63.699219 32.316406 C 64.730469 32.101562 65.40625 32.636719 66.1875 33.027344 Z M 66.1875 33.027344 "/>
<path style=" stroke:none;fill-rule:nonzero;fill:rgb(20%,17.254902%,16.862745%);fill-opacity:1;" d="M 69.03125 33.382812 C 68.355469 35.941406 66.578125 38.035156 64.765625 40.132812 C 64.019531 40.273438 63.59375 41.199219 62.632812 40.84375 C 65.085938 38.960938 66.648438 36.046875 67.964844 33.382812 C 67.964844 33.382812 69.03125 33.382812 69.03125 33.382812 Z M 69.03125 33.382812 "/>
<path style=" stroke:none;fill-rule:nonzero;fill:rgb(20%,17.254902%,16.862745%);fill-opacity:1;" d="M 196.234375 41.554688 C 195.273438 42.621094 193.960938 43.542969 193.390625 44.75 C 194.351562 45.640625 196.199219 44.394531 196.945312 45.816406 C 193.851562 46.777344 189.410156 44.929688 188.417969 49.371094 C 190.300781 51.253906 190.832031 54.984375 194.101562 55.054688 C 192.859375 54.949219 190.585938 56.9375 189.484375 54.699219 C 188.984375 52.78125 189.199219 50.542969 187.707031 49.015625 C 184.828125 51.574219 180.8125 51.429688 177.046875 51.859375 C 181.0625 50.507812 185.078125 49.121094 188.417969 46.171875 C 188.132812 44.929688 187.101562 43.933594 186.996094 42.621094 C 188.132812 43.578125 189.449219 44.183594 190.902344 44.394531 C 193.105469 43.046875 194.597656 40.773438 195.878906 38.710938 C 196.945312 38.960938 196.695312 40.808594 196.234375 41.554688 Z M 196.234375 41.554688 "/>
<path style=" stroke:none;fill-rule:nonzero;fill:rgb(20%,17.254902%,16.862745%);fill-opacity:1;" d="M 75.425781 42.976562 C 75.320312 43.4375 75.710938 44.148438 75.070312 44.394531 C 73.578125 44.679688 72.867188 43.082031 71.515625 42.976562 C 72.511719 41.660156 74.429688 41.660156 75.425781 42.976562 Z M 75.425781 42.976562 "/>
<path style=" stroke:none;fill-rule:nonzero;fill:rgb(20%,17.254902%,16.862745%);fill-opacity:1;" d="M 68.675781 45.460938 C 69.242188 44.113281 67.609375 43.222656 68.320312 42.265625 C 68.425781 43.332031 69.632812 44.394531 68.675781 45.460938 Z M 70.09375 43.683594 C 70.058594 42.335938 72.261719 41.484375 71.160156 40.132812 C 70.664062 39.988281 70.449219 40.59375 70.09375 40.84375 C 69.136719 39.421875 70.34375 38 70.449219 36.578125 C 67.003906 36.292969 68.355469 41.339844 65.121094 41.910156 C 65.261719 43.292969 66.152344 44.324219 66.898438 45.460938 C 70.203125 46.242188 66.648438 48.910156 66.898438 50.792969 C 67.464844 51.359375 68.636719 51.324219 69.03125 50.4375 C 69.347656 48.730469 69.527344 46.917969 70.449219 45.460938 C 71.410156 46.136719 70.132812 46.742188 70.449219 47.59375 C 70.449219 47.59375 72.582031 48.304688 72.582031 48.304688 C 73.578125 46.457031 71.304688 45.070312 70.09375 43.683594 Z M 70.09375 43.683594 "/>
<path style=" stroke:none;fill-rule:nonzero;fill:rgb(20%,17.254902%,16.862745%);fill-opacity:1;" d="M 180.953125 183.324219 C 160.0625 203.828125 128.152344 210.578125 100.296875 201.449219 C 74.820312 194.019531 52.152344 167.941406 47.710938 142.109375 C 41.3125 108.53125 54.640625 77.40625 82.886719 58.609375 C 105.378906 42.976562 141.585938 42.265625 164.964844 56.476562 C 180.171875 64.828125 193.851562 80.675781 199.785156 96.273438 C 212.152344 125.941406 203.765625 161.152344 180.953125 183.324219 Z M 212.578125 127.1875 C 212.257812 127.078125 212.082031 127.363281 211.867188 127.542969 C 211.867188 127.542969 211.511719 127.1875 211.511719 127.1875 C 211.511719 127.1875 211.15625 127.542969 211.15625 127.542969 C 210.660156 127.683594 210.445312 127.078125 210.089844 126.832031 C 209.558594 124.449219 210.730469 123.171875 212.933594 123.277344 C 212.828125 122.105469 213.21875 120.683594 212.578125 119.722656 C 211.867188 119.832031 210.945312 119.441406 210.445312 120.078125 C 209.023438 119.441406 210.269531 117.734375 209.378906 116.882812 C 209.84375 115.746094 211.015625 116.3125 211.867188 116.171875 C 213.183594 115.210938 212.007812 113.507812 211.867188 112.261719 C 210.90625 112.011719 210.269531 112.6875 209.378906 112.617188 C 207.957031 111.976562 209.203125 110.273438 208.3125 109.417969 C 208.8125 108 210.445312 109.242188 211.15625 108.355469 C 211.441406 106.933594 210.695312 105.972656 210.445312 104.800781 C 210.445312 104.800781 207.605469 105.15625 207.605469 105.15625 C 207.605469 105.15625 206.539062 101.957031 206.539062 101.957031 C 206.539062 101.957031 209.378906 100.890625 209.378906 100.890625 C 208.917969 99.71875 208.953125 98.296875 207.957031 97.339844 C 207.957031 97.339844 205.828125 98.40625 205.828125 98.40625 C 205.222656 98.050781 205.222656 97.410156 204.761719 96.984375 C 203.375 94.886719 205.578125 94.566406 206.894531 93.785156 C 206.894531 93.785156 206.183594 91.652344 206.183594 91.652344 C 205.753906 89.414062 203.800781 91.40625 202.628906 91.296875 C 202.097656 90.375 201.457031 89.488281 201.207031 88.457031 C 201.8125 87.460938 202.878906 87.496094 203.695312 87.035156 C 203.554688 85.648438 202.664062 84.617188 201.917969 83.480469 C 201.917969 83.480469 199.429688 84.902344 199.429688 84.902344 C 198.828125 83.835938 197.867188 82.914062 197.65625 81.703125 C 197.65625 81.703125 200.140625 79.929688 200.140625 79.929688 C 200.140625 79.929688 198.011719 77.085938 198.011719 77.085938 C 198.011719 77.085938 195.523438 78.507812 195.523438 78.507812 C 194.5625 77.726562 193.960938 76.765625 193.746094 75.664062 C 194.316406 75.132812 194.847656 74.492188 195.523438 74.242188 C 196.054688 72.714844 193.960938 72.253906 193.746094 71.046875 C 192.714844 70.761719 192.324219 72.003906 191.613281 72.464844 C 190.371094 72.394531 189.339844 70.972656 188.773438 69.980469 C 188.773438 69.980469 190.902344 67.847656 190.902344 67.847656 C 190.902344 67.847656 188.773438 65.359375 188.773438 65.359375 C 187.632812 65.183594 187.101562 66.53125 186.285156 67.136719 C 186.285156 67.136719 183.796875 64.648438 183.796875 64.648438 C 183.796875 64.648438 185.574219 62.875 185.574219 62.875 C 185.964844 61.984375 184.863281 61.699219 184.507812 61.097656 C 183.15625 58.894531 181.949219 61.0625 180.953125 62.164062 C 180.953125 62.164062 178.113281 59.675781 178.113281 59.675781 C 178.113281 59.675781 179.535156 58.253906 179.535156 58.253906 C 180.636719 57.402344 178.824219 56.832031 178.46875 56.121094 C 176.761719 53.917969 176.085938 57.082031 174.914062 57.542969 C 174.914062 57.542969 174.558594 57.1875 174.558594 57.1875 C 172.179688 56.40625 172.460938 54.664062 173.492188 52.925781 C 172.535156 52.320312 171.824219 51.21875 170.648438 51.148438 C 169.796875 51.714844 169.691406 52.570312 169.230469 53.28125 C 167.84375 53.5625 167.097656 52.320312 166.03125 51.859375 C 166.03125 51.859375 167.097656 49.015625 167.097656 49.015625 C 166.171875 48.199219 165 47.949219 163.898438 47.59375 C 163.898438 47.59375 162.121094 50.082031 162.121094 50.082031 C 162.121094 50.082031 159.28125 48.304688 159.28125 48.304688 C 159.28125 48.304688 160.347656 45.816406 160.347656 45.816406 C 159.386719 44.824219 157.964844 44.859375 156.792969 44.398438 C 156.792969 44.398438 156.792969 44.75 156.792969 44.75 C 156.472656 45.605469 156.222656 47.453125 154.660156 46.882812 C 152.03125 46.671875 152.921875 44.75 153.238281 42.976562 C 153.238281 42.976562 149.6875 41.910156 149.6875 41.910156 C 149.082031 42.867188 149.578125 44.859375 147.910156 44.75 C 145.8125 44.644531 144.78125 42.726562 145.777344 40.84375 C 144.570312 40.914062 143.609375 40.488281 142.582031 40.132812 C 141.371094 40.914062 142.6875 44.003906 140.09375 42.976562 C 137.214844 43.367188 138.671875 41.199219 138.316406 39.421875 C 138.316406 39.421875 137.605469 39.421875 137.605469 39.421875 C 133.625 36.863281 135.722656 42.511719 132.632812 41.910156 C 130.074219 42.902344 131.101562 39.917969 130.855469 38.710938 C 129.539062 38.816406 128.011719 38.425781 126.945312 39.066406 C 127.40625 39.671875 127.726562 41.128906 126.589844 41.554688 C 124.210938 42.085938 122.964844 40.914062 123.039062 38.710938 C 121.332031 38.570312 118.027344 38.570312 119.839844 41.199219 C 119.09375 42.621094 117.246094 41.375 116.285156 42.265625 C 115.648438 41.554688 116.039062 40.382812 115.929688 39.421875 C 114.828125 38.960938 113.230469 39.421875 112.023438 39.777344 C 111.773438 40.738281 112.449219 41.375 112.378906 42.265625 C 111.773438 43.6875 110.03125 42.441406 109.179688 43.332031 C 107.757812 42.832031 109.003906 41.199219 108.113281 40.488281 C 106.90625 40.664062 105.664062 40.738281 104.5625 41.199219 C 104.277344 42.265625 105.023438 42.867188 105.273438 43.6875 C 104.417969 44.679688 103.140625 44.644531 102.074219 45.105469 C 101.078125 44.398438 101.113281 43.222656 100.652344 42.265625 C 100.652344 42.265625 97.453125 43.332031 97.453125 43.332031 C 96.671875 44.714844 99.054688 45.675781 97.453125 46.527344 C 95.714844 48.019531 93.722656 46.847656 93.546875 44.75 C 93.546875 44.75 90.347656 45.816406 90.347656 45.816406 C 90.347656 45.816406 91.058594 49.015625 91.058594 49.015625 C 90.136719 49.546875 89.246094 50.1875 88.214844 50.4375 C 87.222656 49.832031 87.257812 48.765625 86.796875 47.949219 C 85.410156 48.089844 84.378906 48.980469 83.242188 49.726562 C 83.703125 50.542969 84.203125 51.394531 84.664062 52.214844 C 83.632812 52.925781 82.671875 53.707031 81.464844 53.988281 C 81.464844 53.988281 79.6875 51.503906 79.6875 51.503906 C 79.6875 51.503906 76.847656 53.636719 76.847656 53.636719 C 76.847656 53.636719 78.265625 56.121094 78.265625 56.121094 C 77.484375 57.082031 76.527344 57.683594 75.425781 57.898438 C 74.890625 57.332031 74.253906 56.796875 74.003906 56.121094 C 72.476562 55.589844 72.015625 57.683594 70.804688 57.898438 C 70.523438 58.929688 71.765625 59.320312 72.226562 60.03125 C 72.617188 60.917969 71.515625 61.203125 71.160156 61.808594 C 70.167969 63.476562 68.390625 61.878906 67.964844 60.742188 C 67.074219 60.351562 66.789062 61.453125 66.1875 61.808594 C 63.59375 62.945312 66.472656 64.472656 66.898438 65.714844 C 66.898438 65.714844 64.410156 67.847656 64.410156 67.847656 C 64.410156 67.847656 62.632812 66.070312 62.632812 66.070312 C 61 66.105469 60.75 67.953125 59.789062 68.914062 C 59.789062 68.914062 61.921875 70.691406 61.921875 70.691406 C 61.921875 70.691406 59.4375 73.175781 59.4375 73.175781 C 58.261719 72.253906 56.914062 71.117188 55.882812 73.175781 C 53.679688 74.882812 56.84375 75.558594 57.304688 76.730469 C 56.488281 77.476562 56.058594 78.363281 55.527344 79.21875 C 55.527344 79.21875 52.683594 78.152344 52.683594 78.152344 C 52.082031 79.109375 50.980469 79.820312 50.90625 80.996094 C 51.476562 81.847656 52.328125 81.953125 53.039062 82.414062 C 53.324219 83.800781 52.082031 84.546875 51.617188 85.613281 C 51.617188 85.613281 48.777344 84.546875 48.777344 84.546875 C 47.996094 85.472656 47.710938 86.644531 47.355469 87.746094 C 47.746094 88.207031 48.277344 88.277344 48.777344 88.457031 C 51.191406 89.238281 48.667969 91.226562 48.066406 92.363281 C 48.066406 92.363281 45.578125 91.296875 45.578125 91.296875 C 44.582031 92.257812 44.617188 93.679688 44.15625 94.851562 C 44.15625 94.851562 44.867188 94.851562 44.867188 94.851562 C 45.472656 95.5625 47.355469 95.421875 46.644531 96.984375 C 46.429688 99.613281 44.511719 98.726562 42.734375 98.40625 C 42.734375 98.40625 41.667969 101.601562 41.667969 101.601562 C 42.378906 102.847656 44.617188 101.957031 44.511719 103.734375 C 44.40625 105.832031 42.488281 106.863281 40.605469 105.867188 C 40.710938 107.074219 40.25 108.035156 39.894531 109.066406 C 39.894531 109.066406 42.734375 110.128906 42.734375 110.128906 C 42.914062 111.550781 42.558594 112.722656 41.667969 113.683594 C 41.066406 113.042969 40 113.433594 39.183594 113.328125 C 39.539062 114.609375 38.507812 115.28125 38.828125 116.527344 C 39.894531 116.988281 41.171875 116.953125 42.023438 117.949219 C 42.132812 120.152344 40.851562 121.324219 38.472656 120.789062 C 38.578125 122.105469 38.1875 123.632812 38.828125 124.699219 C 41.3125 123.808594 41.277344 126.011719 41.667969 127.542969 C 41.066406 128.960938 39.324219 127.71875 38.472656 128.605469 C 38.578125 129.78125 38.1875 131.199219 38.828125 132.160156 C 39.820312 132.410156 40.425781 131.734375 41.3125 131.804688 C 41.667969 132.835938 42.132812 133.792969 42.023438 135.003906 C 41.421875 136.425781 39.679688 135.179688 38.828125 136.070312 C 38.828125 136.070312 39.539062 139.621094 39.539062 139.621094 C 39.539062 139.621094 42.023438 139.265625 42.023438 139.265625 C 43.445312 139.871094 42.203125 141.613281 43.089844 142.464844 C 42.59375 143.886719 40.960938 142.640625 40.25 143.53125 C 40.425781 144.738281 40.496094 145.980469 40.960938 147.082031 C 41.8125 146.90625 42.699219 146.835938 43.445312 146.371094 C 44.441406 147.226562 44.40625 148.503906 44.867188 149.570312 C 44.15625 150.566406 42.984375 150.53125 42.023438 150.992188 C 42.023438 150.992188 43.089844 154.191406 43.089844 154.191406 C 44.15625 154.472656 44.761719 153.726562 45.578125 153.480469 C 46.253906 154.4375 47.175781 155.328125 47 156.675781 C 46.394531 157.671875 45.328125 157.636719 44.511719 158.097656 C 44.972656 159.164062 45.082031 160.371094 45.933594 161.296875 C 45.933594 161.296875 48.777344 160.585938 48.777344 160.585938 C 49.308594 161.507812 49.949219 162.398438 50.199219 163.429688 C 49.59375 164.421875 48.527344 164.386719 47.710938 164.851562 C 47.851562 166.234375 48.742188 167.265625 49.488281 168.402344 C 50.304688 167.941406 51.15625 167.441406 51.972656 166.980469 C 52.683594 168.011719 53.5 168.972656 53.75 170.179688 C 53.75 170.179688 51.617188 171.246094 51.617188 171.246094 C 51.441406 172.738281 52.792969 173.625 53.394531 174.796875 C 53.394531 174.796875 55.882812 173.378906 55.882812 173.378906 C 56.84375 174.160156 57.445312 175.117188 57.660156 176.21875 C 57.089844 177.179688 56.09375 177.035156 55.527344 177.996094 C 55.527344 177.996094 57.660156 180.839844 57.660156 180.839844 C 58.796875 181.015625 59.328125 179.667969 60.144531 179.0625 C 61.035156 179.984375 62.03125 180.875 62.632812 181.90625 C 62.632812 181.90625 60.5 184.035156 60.5 184.035156 C 60.5 184.035156 62.988281 186.523438 62.988281 186.523438 C 62.988281 186.523438 65.121094 184.746094 65.121094 184.746094 C 65.121094 184.746094 67.609375 187.234375 67.609375 187.234375 C 67.609375 187.234375 65.832031 189.011719 65.832031 189.011719 C 65.867188 190.324219 67.574219 190.679688 68.320312 191.855469 C 68.957031 191.390625 69.8125 190.042969 70.804688 189.722656 C 70.804688 189.722656 73.292969 192.210938 73.292969 192.210938 C 73.292969 192.210938 71.871094 193.628906 71.871094 193.628906 C 70.769531 194.484375 72.582031 195.050781 72.9375 195.761719 C 74.644531 197.964844 75.320312 194.804688 76.492188 194.339844 C 76.492188 194.339844 78.976562 196.117188 78.976562 196.117188 C 78.90625 197.113281 78.375 197.929688 77.558594 198.605469 C 78.480469 199.707031 79.546875 200.417969 80.753906 200.738281 C 80.753906 200.738281 82.53125 198.25 82.53125 198.25 C 82.53125 198.25 85.375 200.027344 85.375 200.027344 C 85.375 200.027344 84.308594 202.867188 84.308594 202.867188 C 85.230469 203.652344 86.40625 203.933594 87.503906 204.289062 C 87.96875 203.898438 88.039062 203.367188 88.214844 202.867188 C 89 200.453125 90.988281 202.976562 92.125 203.578125 C 92.125 203.578125 91.058594 206.066406 91.058594 206.066406 C 91.058594 206.066406 94.257812 207.488281 94.257812 207.488281 C 94.257812 207.488281 96.035156 204.644531 96.035156 204.644531 C 96.035156 204.644531 98.875 206.066406 98.875 206.066406 C 98.875 206.066406 98.164062 208.910156 98.164062 208.910156 C 98.164062 208.910156 101.363281 209.976562 101.363281 209.976562 C 102.640625 209.230469 101.578125 206.527344 103.851562 207.132812 C 105.980469 207.308594 106.265625 209.335938 105.628906 211.042969 C 106.515625 211.714844 107.972656 211.042969 108.824219 211.75 C 108.824219 211.75 109.890625 208.910156 109.890625 208.910156 C 111.3125 208.730469 112.484375 209.085938 113.445312 209.976562 C 112.804688 210.332031 113.195312 211.148438 113.089844 211.75 C 113.410156 212.710938 115.292969 212.890625 116.640625 212.816406 C 116.464844 211.539062 116.820312 210.472656 117.707031 209.621094 C 119.945312 209.511719 121.082031 210.792969 120.550781 213.171875 C 122.789062 213.351562 125.382812 213.246094 124.8125 210.332031 C 127.195312 209.796875 128.472656 210.933594 128.367188 213.171875 C 129.539062 213.066406 130.960938 213.457031 131.921875 212.816406 C 132.167969 211.824219 131.496094 211.21875 131.566406 210.332031 C 132.417969 209.621094 133.875 210.296875 134.761719 209.621094 C 136.289062 210.222656 134.65625 212.179688 136.183594 212.816406 C 137.039062 212.035156 138.53125 212.890625 139.382812 212.105469 C 139.382812 212.105469 139.027344 209.621094 139.027344 209.621094 C 139.667969 208.199219 141.371094 209.441406 142.226562 208.554688 C 143.644531 209.050781 142.402344 210.6875 143.289062 211.394531 C 144.710938 211.679688 145.671875 210.933594 146.84375 210.6875 C 146.84375 210.6875 146.488281 207.84375 146.488281 207.84375 C 147.234375 206.992188 148.476562 207.382812 149.332031 206.777344 C 150.324219 207.488281 150.289062 208.660156 150.753906 209.621094 C 151.925781 209.15625 153.347656 209.191406 154.304688 208.199219 C 154.304688 208.199219 153.238281 206.066406 153.238281 206.066406 C 154.269531 205.355469 155.230469 204.539062 156.4375 204.289062 C 157.433594 205 157.398438 206.171875 157.859375 207.132812 C 158.925781 206.671875 160.132812 206.5625 161.058594 205.710938 C 161.058594 205.710938 160.347656 202.867188 160.347656 202.867188 C 161.269531 202.335938 162.160156 201.695312 163.1875 201.449219 C 164.183594 202.050781 164.148438 203.117188 164.609375 203.933594 C 165.996094 203.792969 167.027344 202.902344 168.164062 202.15625 C 167.703125 201.339844 167.203125 200.488281 166.742188 199.671875 C 167.773438 198.960938 168.730469 198.144531 169.941406 197.894531 C 169.941406 197.894531 171.714844 200.382812 171.714844 200.382812 C 171.714844 200.382812 174.558594 198.25 174.558594 198.25 C 174.558594 198.25 173.136719 195.761719 173.136719 195.761719 C 173.136719 195.761719 175.625 193.628906 175.625 193.628906 C 176.335938 194.449219 177.4375 195.121094 177.757812 196.117188 C 177.757812 196.117188 180.597656 193.984375 180.597656 193.984375 C 180.777344 192.847656 179.425781 192.316406 178.824219 191.5 C 179.746094 190.609375 180.636719 189.617188 181.664062 189.011719 C 182.875 189.578125 182.625 191.355469 184.152344 191.144531 C 186.070312 190.007812 186.78125 187.660156 184.507812 186.167969 C 184.507812 186.167969 186.996094 184.035156 186.996094 184.035156 C 186.996094 184.035156 188.773438 185.8125 188.773438 185.8125 C 190.40625 185.886719 190.300781 184 191.613281 183.324219 C 191.613281 183.324219 189.480469 180.839844 189.480469 180.839844 C 189.480469 180.839844 191.96875 178.351562 191.96875 178.351562 C 191.96875 178.351562 193.390625 179.773438 193.390625 179.773438 C 194.242188 180.875 194.8125 179.0625 195.523438 178.707031 C 197.726562 177 194.5625 176.328125 194.101562 175.152344 C 194.101562 175.152344 194.457031 174.796875 194.457031 174.796875 C 195.238281 172.417969 196.980469 172.703125 198.71875 173.734375 C 199.324219 172.773438 200.425781 172.0625 200.496094 170.890625 C 200.496094 170.890625 198.011719 169.113281 198.011719 169.113281 C 198.011719 169.113281 199.785156 166.269531 199.785156 166.269531 C 199.785156 166.269531 202.628906 167.335938 202.628906 167.335938 C 203.445312 166.304688 203.980469 165.132812 204.050781 163.785156 C 203.445312 164.03125 203.160156 163.355469 202.628906 163.429688 C 200.214844 162.648438 202.734375 160.65625 203.339844 159.519531 C 203.339844 159.519531 205.828125 160.585938 205.828125 160.585938 C 206.679688 159.660156 206.785156 158.453125 207.25 157.386719 C 207.25 157.386719 204.40625 155.609375 204.40625 155.609375 C 204.65625 155.007812 205.402344 154.652344 205.117188 153.835938 C 205.542969 151.597656 207.496094 153.585938 208.667969 153.480469 C 208.667969 153.480469 209.734375 150.28125 209.734375 150.28125 C 209.023438 149.039062 206.785156 149.925781 206.894531 148.148438 C 207 146.054688 208.917969 145.023438 210.800781 146.019531 C 211.476562 145.128906 210.800781 143.671875 211.511719 142.820312 C 210.730469 141.613281 207.640625 142.925781 208.667969 140.332031 C 208.277344 137.453125 210.445312 138.910156 212.222656 138.554688 C 212.222656 138.554688 212.222656 137.84375 212.222656 137.84375 C 214.78125 133.867188 209.132812 135.960938 209.734375 132.871094 C 208.742188 130.3125 211.726562 131.34375 212.933594 131.09375 C 212.828125 129.78125 213.21875 128.25 212.578125 127.1875 Z M 212.578125 127.1875 "/>
<path style=" stroke:none;fill-rule:nonzero;fill:rgb(20%,17.254902%,16.862745%);fill-opacity:1;" d="M 127.65625 103.023438 C 127.65625 103.023438 116.644531 103.023438 116.644531 103.023438 C 116.535156 101.140625 116.925781 99.007812 116.289062 97.339844 C 116.820312 96.734375 116.820312 95.457031 116.289062 94.851562 C 116.820312 84.335938 116.820312 74.457031 116.289062 63.9375 C 116.644531 62.765625 116.644531 61.558594 116.289062 60.386719 C 116.289062 60.386719 116.644531 59.675781 116.644531 59.675781 C 116.644531 59.675781 127.65625 59.675781 127.65625 59.675781 C 127.65625 59.675781 127.65625 103.023438 127.65625 103.023438 Z M 127.65625 103.023438 "/>
<path style=" stroke:none;fill-rule:nonzero;fill:rgb(20%,17.254902%,16.862745%);fill-opacity:1;" d="M 138.316406 103.023438 C 138.316406 103.023438 130.855469 103.023438 130.855469 103.023438 C 130.855469 103.023438 130.5 60.742188 130.5 60.742188 C 130.5 60.742188 130.855469 60.03125 130.855469 60.03125 C 130.855469 60.03125 138.316406 60.03125 138.316406 60.03125 C 138.316406 60.03125 138.316406 103.023438 138.316406 103.023438 Z M 138.316406 103.023438 "/>
<path style=" stroke:none;fill-rule:nonzero;fill:rgb(20%,17.254902%,16.862745%);fill-opacity:1;" d="M 115.21875 80.640625 C 105.839844 81.277344 96.035156 80.886719 86.441406 80.996094 C 84.308594 75.488281 90.953125 74.492188 93.546875 72.109375 C 100.832031 69.945312 108.929688 69.871094 114.511719 63.582031 C 114.511719 63.582031 115.21875 63.582031 115.21875 63.582031 C 115.21875 63.582031 115.21875 80.640625 115.21875 80.640625 Z M 115.21875 80.640625 "/>
<path style=" stroke:none;fill-rule:nonzero;fill:rgb(20%,17.254902%,16.862745%);fill-opacity:1;" d="M 163.542969 98.050781 C 162.515625 100.144531 160.628906 101 158.925781 103.023438 C 158.925781 103.023438 149.332031 103.023438 149.332031 103.023438 C 145.53125 91.511719 137.179688 81.917969 140.449219 67.492188 C 142.9375 66.53125 145.210938 65.074219 147.910156 64.648438 C 147.910156 64.648438 163.542969 98.050781 163.542969 98.050781 Z M 163.542969 98.050781 "/>
<path style=" stroke:none;fill-rule:nonzero;fill:rgb(20%,17.254902%,16.862745%);fill-opacity:1;" d="M 39.539062 65.359375 C 39.539062 65.359375 40.960938 65.714844 40.960938 65.714844 C 40.496094 66.675781 39.714844 65.464844 39.539062 65.359375 Z M 43.800781 70.691406 C 42.0625 69.089844 42.734375 66.460938 42.378906 64.292969 C 41.597656 63.40625 39.820312 64.257812 38.828125 65.003906 C 37.621094 63.726562 36.019531 63.40625 34.207031 63.582031 C 34.632812 66.921875 38.757812 68.414062 40.25 70.691406 C 39.609375 71.046875 40 71.863281 39.894531 72.464844 C 39.894531 72.464844 41.316406 71.398438 41.316406 71.398438 C 43.019531 72.394531 42.84375 74.171875 44.15625 75.308594 C 44.40625 73.601562 43.730469 72.289062 43.800781 70.691406 Z M 43.800781 70.691406 "/>
<path style=" stroke:none;fill-rule:nonzero;fill:rgb(20%,17.254902%,16.862745%);fill-opacity:1;" d="M 215.066406 69.980469 C 215.066406 69.980469 214.355469 69.980469 214.355469 69.980469 C 213.859375 68.453125 215.8125 67.953125 216.132812 66.78125 C 216.308594 68.058594 215.953125 69.125 215.066406 69.980469 Z M 215.066406 69.980469 "/>
<path style=" stroke:none;fill-rule:nonzero;fill:rgb(20%,17.254902%,16.862745%);fill-opacity:1;" d="M 33.140625 70.335938 C 34.742188 75.132812 39.324219 78.117188 43.445312 80.636719 C 43.730469 81.703125 43.054688 81.703125 42.378906 82.058594 C 41.917969 82.167969 41.207031 81.777344 40.960938 82.414062 C 39.964844 85.683594 44.65625 88.953125 40.960938 90.941406 C 39.894531 91.15625 39.113281 90.695312 38.472656 89.875 C 41.597656 88.207031 39.964844 83.480469 39.894531 80.636719 C 36.234375 76.695312 32.324219 71.933594 27.8125 69.269531 C 27.8125 69.269531 24.96875 69.625 24.96875 69.625 C 26.179688 68.34375 28.097656 66.105469 30.300781 67.492188 C 31.722656 68.023438 32.289062 69.125 33.140625 70.335938 Z M 33.140625 70.335938 "/>
<path style=" stroke:none;fill-rule:nonzero;fill:rgb(20%,17.254902%,16.862745%);fill-opacity:1;" d="M 227.144531 71.398438 C 225.6875 71.292969 224.550781 70.441406 223.238281 69.980469 C 224.339844 69.375 226.828125 69.871094 227.5 68.203125 C 227.925781 68.734375 228.320312 70.761719 227.144531 71.398438 Z M 227.144531 71.398438 "/>
<path style=" stroke:none;fill-rule:nonzero;fill:rgb(20%,17.254902%,16.862745%);fill-opacity:1;" d="M 50.199219 73.175781 C 48.492188 74.597656 50.480469 76.269531 49.84375 78.152344 C 49.84375 78.152344 48.066406 75.308594 48.066406 75.308594 C 48.066406 75.308594 46.289062 76.730469 46.289062 76.730469 C 48.242188 75.023438 45.257812 72.609375 48.421875 71.398438 C 49.664062 71.117188 50.625 71.863281 50.199219 73.175781 Z M 50.199219 73.175781 "/>
<path style=" stroke:none;fill-rule:nonzero;fill:rgb(20%,17.254902%,16.862745%);fill-opacity:1;" d="M 222.527344 71.398438 C 223.34375 71.792969 222.457031 72.324219 222.527344 72.820312 C 221.78125 74.457031 220.539062 73.425781 219.328125 73.53125 C 219.328125 73.53125 218.617188 72.820312 218.617188 72.820312 C 219.683594 71.828125 222.207031 73.460938 222.527344 71.398438 Z M 225.015625 72.109375 C 225.015625 72.109375 227.855469 74.953125 227.855469 74.953125 C 227.855469 74.953125 227.5 75.308594 227.5 75.308594 C 227.179688 75.414062 227.003906 75.132812 226.789062 74.953125 C 223.949219 75.488281 219.863281 77.085938 217.550781 74.953125 C 218.546875 72.289062 220.394531 75.488281 222.171875 74.953125 C 223.308594 73.992188 222.8125 72.039062 223.949219 71.398438 C 222.8125 71.4375 221.710938 69.90625 221.460938 69.269531 C 221.496094 69.90625 220.75 70.226562 220.394531 70.691406 C 215.242188 71.792969 221.601562 67.277344 220.039062 65.359375 C 219.363281 66.921875 218.050781 68.59375 216.839844 69.625 C 219.578125 72.109375 214.886719 70.726562 214.710938 72.109375 C 214.710938 72.109375 216.839844 72.109375 216.839844 72.109375 C 217.730469 72.539062 217.515625 73.425781 217.550781 74.242188 C 216.238281 75.488281 214.460938 73.53125 212.933594 73.175781 C 211.40625 72.574219 209.097656 73.070312 208.3125 71.398438 C 208.527344 71.222656 208.703125 70.9375 209.023438 71.046875 C 209.023438 71.046875 208.667969 70.691406 208.667969 70.691406 C 208.066406 71.152344 206.964844 71.117188 206.894531 72.109375 C 208.8125 73.105469 211.15625 73.070312 213.289062 73.53125 C 215.847656 75.804688 219.363281 75.804688 221.460938 79.21875 C 219.292969 79.820312 216.839844 76.445312 215.421875 76.730469 C 215.421875 76.730469 218.617188 79.929688 218.617188 79.929688 C 219.71875 80.816406 221.921875 81.171875 222.882812 80.285156 C 222.882812 80.285156 219.683594 76.730469 219.683594 76.730469 C 221.105469 76.089844 223.449219 76.480469 224.660156 76.375 C 226.363281 76.339844 228.566406 76.695312 229.277344 74.953125 C 227.820312 74.101562 226.683594 72.464844 225.015625 72.109375 Z M 225.015625 72.109375 "/>
<path style=" stroke:none;fill-rule:nonzero;fill:rgb(20%,17.254902%,16.862745%);fill-opacity:1;" d="M 214.710938 78.507812 C 213.855469 78.578125 213.253906 78.152344 212.578125 77.796875 C 212.578125 77.796875 212.933594 77.441406 212.933594 77.441406 C 212.863281 76.089844 210.835938 76.480469 211.15625 74.953125 C 212.328125 76.195312 214.675781 76.765625 214.710938 78.507812 Z M 214.710938 78.507812 "/>
<path style=" stroke:none;fill-rule:nonzero;fill:rgb(20%,17.254902%,16.862745%);fill-opacity:1;" d="M 215.066406 80.640625 C 215.527344 81.207031 215.421875 82.023438 215.421875 82.769531 C 214.25 81.917969 212.828125 81.703125 211.867188 80.285156 C 212.046875 80.070312 212.328125 79.894531 212.222656 79.574219 C 212.222656 79.574219 211.867188 79.21875 211.867188 79.21875 C 209.273438 80.601562 208.316406 83.765625 205.472656 84.546875 C 203.871094 82.984375 204.226562 79.964844 203.339844 77.796875 C 204.761719 77.761719 203.519531 79.429688 204.40625 79.929688 C 205.1875 80.816406 205.222656 81.953125 206.183594 82.769531 C 207.960938 82.058594 209.523438 80 210.800781 78.863281 C 209.273438 77.902344 206.644531 78.046875 206.183594 76.019531 C 206.183594 76.019531 206.539062 75.308594 206.539062 75.308594 C 208.847656 77.617188 212.613281 78.71875 215.066406 80.640625 Z M 215.066406 80.640625 "/>
<path style=" stroke:none;fill-rule:nonzero;fill:rgb(20%,17.254902%,16.862745%);fill-opacity:1;" d="M 38.117188 84.546875 C 38.117188 84.546875 38.117188 84.902344 38.117188 84.902344 C 37.796875 83.765625 35.628906 80.496094 33.851562 82.769531 C 33.851562 82.769531 32.078125 83.125 32.078125 83.125 C 34.066406 82.128906 34.847656 77.972656 37.761719 79.574219 C 37.761719 79.574219 38.117188 84.546875 38.117188 84.546875 Z M 38.117188 84.546875 "/>
<path style=" stroke:none;fill-rule:nonzero;fill:rgb(20%,17.254902%,16.862745%);fill-opacity:1;" d="M 115.21875 83.480469 C 114.6875 85.152344 114.6875 87.496094 115.21875 89.167969 C 115.21875 89.167969 114.863281 89.523438 114.863281 89.523438 C 107.828125 90.160156 99.691406 89.769531 92.125 89.875 C 92.125 89.875 91.769531 83.125 91.769531 83.125 C 99.585938 83.230469 107.617188 82.839844 115.21875 83.480469 Z M 115.21875 83.480469 "/>
<path style=" stroke:none;fill-rule:nonzero;fill:rgb(20%,17.254902%,16.862745%);fill-opacity:1;" d="M 114.867188 90.589844 C 114.972656 92.472656 114.582031 94.601562 115.222656 96.273438 C 115.222656 96.273438 114.867188 96.628906 114.867188 96.628906 C 107.6875 97.269531 99.480469 96.878906 91.769531 96.984375 C 91.769531 96.984375 91.769531 90.589844 91.769531 90.589844 C 91.769531 90.589844 114.867188 90.589844 114.867188 90.589844 Z M 114.867188 90.589844 "/>
<path style=" stroke:none;fill-rule:nonzero;fill:rgb(20%,17.254902%,16.862745%);fill-opacity:1;" d="M 115.21875 98.40625 C 114.296875 99.96875 115.539062 101.921875 114.863281 103.378906 C 114.863281 103.378906 115.21875 103.734375 115.21875 103.734375 C 113.125 105.050781 109.535156 104.195312 106.691406 104.445312 C 104.132812 102.882812 101.078125 102.457031 98.519531 100.890625 C 97.527344 101.746094 97.5625 103.023438 97.097656 104.089844 C 97.097656 104.089844 92.125 104.445312 92.125 104.445312 C 92.125 104.445312 91.769531 98.050781 91.769531 98.050781 C 99.585938 98.15625 107.617188 97.765625 115.21875 98.40625 Z M 115.21875 98.40625 "/>
<path style=" stroke:none;fill-rule:nonzero;fill:rgb(20%,17.254902%,16.862745%);fill-opacity:1;" d="M 102.074219 110.839844 C 102.074219 110.839844 83.597656 169.46875 83.597656 169.46875 C 83.703125 169.789062 83.421875 169.964844 83.242188 170.179688 C 84.769531 171.777344 86.722656 172.277344 88.570312 173.023438 C 88.890625 174.371094 88.074219 175.222656 87.507812 176.21875 C 81.925781 177.355469 76.703125 175.578125 72.226562 173.023438 C 73.042969 171.136719 73.363281 169.007812 74.714844 167.335938 C 75.992188 168.117188 77.523438 168.402344 78.976562 168.757812 C 78.976562 168.757812 83.953125 154.191406 83.953125 154.191406 C 83.953125 154.191406 99.941406 104.089844 99.941406 104.089844 C 99.941406 104.089844 103.496094 105.511719 103.496094 105.511719 C 103.496094 105.511719 102.074219 110.839844 102.074219 110.839844 Z M 102.074219 110.839844 "/>
<path style=" stroke:none;fill-rule:nonzero;fill:rgb(20%,17.254902%,16.862745%);fill-opacity:1;" d="M 78.625 105.867188 C 78.835938 105.6875 79.015625 105.40625 79.332031 105.511719 C 80.117188 111.339844 79.261719 117.804688 80.042969 123.632812 C 79.867188 123.84375 79.582031 124.023438 79.6875 124.34375 C 75.460938 122.425781 71.585938 119.757812 67.609375 117.238281 C 67.609375 117.238281 67.964844 105.511719 67.964844 105.511719 C 71.515625 105.617188 75.28125 105.226562 78.625 105.867188 Z M 78.625 105.867188 "/>
<path style=" stroke:none;fill-rule:nonzero;fill:rgb(20%,17.254902%,16.862745%);fill-opacity:1;" d="M 96.390625 105.867188 C 96.390625 105.867188 88.925781 129.316406 88.925781 129.316406 C 86.40625 128.359375 84.023438 127.113281 81.820312 125.410156 C 81.179688 119.832031 81.570312 113.363281 81.464844 108 C 82.425781 107.324219 80.507812 106.042969 82.175781 105.511719 C 86.902344 105.617188 91.875 105.226562 96.390625 105.867188 Z M 96.390625 105.867188 "/>
<path style=" stroke:none;fill-rule:nonzero;fill:rgb(20%,17.254902%,16.862745%);fill-opacity:1;" d="M 151.820312 128.25 C 147.839844 130.703125 144.320312 134.257812 140.804688 137.84375 C 140.804688 137.84375 102.429688 137.488281 102.429688 137.488281 C 102.429688 137.488281 97.8125 134.648438 97.8125 134.648438 C 101.433594 125.160156 103.425781 114.996094 107.050781 105.511719 C 107.050781 105.511719 152.175781 105.867188 152.175781 105.867188 C 152.175781 105.867188 151.820312 128.25 151.820312 128.25 Z M 151.820312 128.25 "/>
<path style=" stroke:none;fill-rule:nonzero;fill:rgb(20%,17.254902%,16.862745%);fill-opacity:1;" d="M 159.636719 122.566406 C 158.605469 123.453125 156.863281 125.230469 155.371094 124.699219 C 155.050781 123.847656 156.332031 123.242188 155.371094 122.566406 C 155.550781 122.351562 155.835938 122.175781 155.726562 121.855469 C 155.726562 121.855469 155.371094 121.5 155.371094 121.5 C 155.90625 116.632812 155.90625 110.664062 155.371094 106.222656 C 156.226562 104.90625 157.964844 105.761719 159.28125 105.511719 C 159.28125 105.511719 159.636719 122.566406 159.636719 122.566406 Z M 159.636719 122.566406 "/>
<path style=" stroke:none;fill-rule:nonzero;fill:rgb(20%,17.254902%,16.862745%);fill-opacity:1;" d="M 234.609375 145.304688 C 233.933594 145.839844 234.609375 146.941406 233.898438 147.4375 C 229.742188 145.199219 225.617188 147.542969 221.460938 148.148438 C 221.460938 148.148438 220.75 148.859375 220.75 148.859375 C 223.769531 149.710938 218.617188 153.300781 222.882812 153.480469 C 226.1875 153.90625 229.03125 155.363281 232.121094 156.320312 C 232.121094 156.320312 231.410156 158.097656 231.410156 158.097656 C 227.574219 157.527344 224.234375 155.824219 220.394531 155.253906 C 220.039062 156.320312 219.683594 157.386719 219.328125 158.453125 C 218.476562 158.523438 217.871094 158.097656 217.199219 157.742188 C 220.039062 153.480469 216.488281 142.820312 225.726562 144.949219 C 225.726562 144.949219 226.082031 144.59375 226.082031 144.59375 C 224.695312 142.320312 219.222656 142.890625 221.460938 138.910156 C 225.972656 140.722656 229.3125 145.414062 234.609375 145.304688 Z M 234.609375 145.304688 "/>
<path style=" stroke:none;fill-rule:nonzero;fill:rgb(20%,17.254902%,16.862745%);fill-opacity:1;" d="M 187.351562 127.1875 C 187.351562 127.1875 184.863281 126.832031 184.863281 126.832031 C 184.757812 125.265625 185.148438 122.566406 184.507812 120.789062 C 185.113281 119.441406 187.421875 118.730469 188.417969 120.433594 C 188.0625 122.671875 189.304688 125.90625 187.351562 127.1875 Z M 188.417969 146.726562 C 187.597656 147.472656 186.035156 148.183594 184.863281 147.082031 C 184.757812 145.519531 185.148438 142.820312 184.507812 141.042969 C 188.664062 136.886719 188.628906 143.886719 188.417969 146.726562 Z M 190.902344 129.671875 C 190.902344 129.671875 190.902344 116.882812 190.902344 116.882812 C 189.695312 116.207031 187.492188 115.601562 187.707031 113.683594 C 189.554688 112.511719 188.699219 109.207031 188.417969 107.289062 C 188.417969 107.289062 162.832031 107.289062 162.832031 107.289062 C 162.832031 107.289062 162.476562 121.144531 162.476562 121.144531 C 169.335938 117.023438 176.941406 114.820312 184.863281 113.328125 C 186.285156 115.460938 182.980469 115.921875 182.019531 117.238281 C 182.554688 121.039062 182.554688 125.515625 182.019531 129.316406 C 182.339844 131.164062 184.578125 129.957031 185.21875 131.804688 C 184.96875 133.121094 185.824219 134.859375 184.507812 135.714844 C 180.492188 137.0625 183.371094 142.570312 182.019531 145.664062 C 182.554688 146.265625 182.554688 147.546875 182.019531 148.148438 C 182.019531 148.148438 182.375 148.503906 182.375 148.503906 C 182.269531 148.964844 182.660156 149.675781 182.019531 149.925781 C 182.554688 151.167969 184.292969 150.957031 185.21875 152.058594 C 185.21875 152.058594 185.21875 164.496094 185.21875 164.496094 C 186.035156 164.386719 187.101562 164.777344 187.707031 164.140625 C 187.707031 164.140625 187.707031 152.058594 187.707031 152.058594 C 188.417969 151.0625 189.589844 151.097656 190.546875 150.636719 C 190.546875 150.636719 190.902344 137.488281 190.902344 137.488281 C 190.902344 137.488281 187.707031 135.003906 187.707031 135.003906 C 186.851562 132.125 188.878906 130.738281 190.902344 129.671875 Z M 190.902344 129.671875 "/>
<path style=" stroke:none;fill-rule:nonzero;fill:rgb(20%,17.254902%,16.862745%);fill-opacity:1;" d="M 141.515625 147.4375 C 141.515625 147.4375 105.628906 147.4375 105.628906 147.4375 C 105.628906 147.4375 105.628906 141.753906 105.628906 141.753906 C 105.628906 141.753906 141.515625 141.753906 141.515625 141.753906 C 141.515625 141.753906 141.515625 147.4375 141.515625 147.4375 Z M 141.515625 147.4375 "/>
<path style=" stroke:none;fill-rule:nonzero;fill:rgb(20%,17.254902%,16.862745%);fill-opacity:1;" d="M 141.871094 150.636719 C 143.929688 154.582031 149.828125 156.960938 147.554688 162.71875 C 147.554688 162.71875 98.875 162.71875 98.875 162.71875 C 98.875 161.367188 98.875 159.164062 98.875 157.386719 C 101.152344 155.292969 102.144531 152.34375 104.5625 150.636719 C 104.5625 150.636719 141.871094 150.636719 141.871094 150.636719 Z M 141.871094 150.636719 "/>
<path style=" stroke:none;fill-rule:nonzero;fill:rgb(20%,17.254902%,16.862745%);fill-opacity:1;" d="M 33.140625 151.703125 C 34.492188 154.1875 34.8125 157.136719 35.628906 159.875 C 34.242188 160.761719 33 159.945312 32.785156 158.453125 C 32.324219 157.136719 32.359375 155.609375 31.367188 154.542969 C 30.582031 155.007812 29.589844 155.007812 28.878906 155.609375 C 29.128906 157.492188 30.9375 159.945312 29.589844 161.296875 C 26.140625 161.792969 27.953125 152.839844 23.195312 157.386719 C 22.445312 159.945312 26.78125 162.789062 23.195312 164.136719 C 23.195312 164.136719 22.484375 164.136719 22.484375 164.136719 C 22.199219 161.1875 20.28125 158.914062 19.996094 155.964844 C 24.257812 154.296875 28.808594 153.230469 33.140625 151.703125 Z M 33.140625 151.703125 "/>
<path style=" stroke:none;fill-rule:nonzero;fill:rgb(20%,17.254902%,16.862745%);fill-opacity:1;" d="M 229.632812 163.429688 C 229.632812 163.429688 228.921875 165.558594 228.921875 165.558594 C 224.339844 164.351562 220.109375 162.398438 215.777344 160.585938 C 215.777344 160.585938 216.488281 158.808594 216.488281 158.808594 C 221.035156 159.980469 225.191406 162.078125 229.632812 163.429688 Z M 229.632812 163.429688 "/>
<path style=" stroke:none;fill-rule:nonzero;fill:rgb(20%,17.254902%,16.862745%);fill-opacity:1;" d="M 37.050781 163.785156 C 32.609375 164.886719 28.738281 167.335938 24.257812 168.402344 C 24.257812 168.402344 23.546875 166.625 23.546875 166.625 C 23.546875 166.625 35.984375 161.296875 35.984375 161.296875 C 36.875 161.582031 37.226562 162.71875 37.050781 163.785156 Z M 37.050781 163.785156 "/>
<path style=" stroke:none;fill-rule:nonzero;fill:rgb(20%,17.254902%,16.862745%);fill-opacity:1;" d="M 218.972656 164.140625 C 218.796875 166.734375 213.679688 166.058594 215.066406 169.46875 C 218.546875 171.957031 219.1875 165.558594 222.527344 165.558594 C 224.304688 166.164062 226.613281 166.980469 227.148438 169.113281 C 226.96875 171.492188 226.402344 174.015625 223.949219 175.152344 C 222.5625 175.582031 221.675781 175.152344 220.394531 174.796875 C 220.46875 172.027344 225.617188 173.234375 224.660156 169.46875 C 224.660156 169.46875 223.238281 168.046875 223.238281 168.046875 C 220.503906 169.46875 218.726562 174.230469 215.066406 172.3125 C 212.792969 171.386719 212.046875 168.757812 212.933594 166.625 C 213.75 165.667969 214.070312 164.210938 215.421875 163.785156 C 216.59375 163.890625 218.015625 163.5 218.972656 164.140625 Z M 218.972656 164.140625 "/>
<path style=" stroke:none;fill-rule:nonzero;fill:rgb(20%,17.254902%,16.862745%);fill-opacity:1;" d="M 153.242188 165.914062 C 153.878906 170.675781 153.488281 175.863281 153.597656 180.839844 C 153.597656 180.839844 93.546875 180.839844 93.546875 180.839844 C 93.546875 180.839844 93.902344 165.914062 93.902344 165.914062 C 93.902344 165.914062 153.242188 165.914062 153.242188 165.914062 Z M 153.242188 165.914062 "/>
<path style=" stroke:none;fill-rule:nonzero;fill:rgb(20%,17.254902%,16.862745%);fill-opacity:1;" d="M 30.65625 170.179688 C 29.875 170.996094 28.878906 171.351562 28.167969 172.3125 C 28.628906 172.738281 28.628906 173.378906 29.234375 173.730469 C 32.824219 172.3125 36.480469 170.960938 39.894531 169.113281 C 39.894531 169.113281 40.960938 170.890625 40.960938 170.890625 C 40.960938 170.890625 30.300781 176.21875 30.300781 176.21875 C 28.273438 176.789062 26.535156 175.011719 26.035156 173.378906 C 25.21875 170.925781 27.492188 169.148438 29.234375 168.402344 C 30.230469 168.152344 30.191406 169.574219 30.65625 170.179688 Z M 30.65625 170.179688 "/>
<path style=" stroke:none;fill-rule:nonzero;fill:rgb(20%,17.254902%,16.862745%);fill-opacity:1;" d="M 43.089844 174.796875 C 38.933594 177.035156 34.953125 179.667969 30.65625 181.550781 C 29.339844 180.765625 30.121094 178.957031 31.367188 178.707031 C 34.777344 176.46875 38.4375 174.796875 42.023438 173.023438 C 42.023438 173.023438 43.089844 174.796875 43.089844 174.796875 Z M 43.089844 174.796875 "/>
<path style=" stroke:none;fill-rule:nonzero;fill:rgb(20%,17.254902%,16.862745%);fill-opacity:1;" d="M 212.578125 180.484375 C 211.40625 180.410156 210.695312 179.308594 209.734375 178.707031 C 210.445312 177.390625 212.398438 174.15625 214 176.929688 C 214.28125 178.421875 212.683594 179.132812 212.578125 180.484375 Z M 221.816406 180.839844 C 221.816406 180.839844 222.882812 178.707031 222.882812 178.707031 C 222.882812 178.707031 218.617188 176.929688 218.617188 176.929688 C 217.980469 175.96875 215.703125 177.460938 216.132812 175.507812 C 215.171875 173.695312 213.394531 172.488281 211.15625 173.019531 C 208.421875 174.195312 207.851562 177.535156 206.183594 179.773438 C 210.160156 182.296875 214.035156 184.960938 218.261719 186.878906 C 218.40625 186.132812 219.328125 185.707031 218.972656 184.746094 C 217.550781 183.789062 215.597656 183.394531 214.710938 181.902344 C 214.710938 181.902344 216.839844 179.0625 216.839844 179.0625 C 218.796875 178.882812 220.003906 180.625 221.816406 180.839844 Z M 221.816406 180.839844 "/>
<path style=" stroke:none;fill-rule:nonzero;fill:rgb(20%,17.254902%,16.862745%);fill-opacity:1;" d="M 45.222656 178.707031 C 43.554688 181.441406 41.917969 184.144531 40.25 186.878906 C 40.25 186.878906 40.605469 187.234375 40.605469 187.234375 C 40.605469 187.234375 47.710938 182.617188 47.710938 182.617188 C 47.710938 182.617188 49.132812 184.035156 49.132812 184.035156 C 45.328125 186.84375 41.597656 189.898438 37.40625 191.855469 C 36.945312 191.425781 36.945312 190.789062 36.339844 190.433594 C 37.9375 187.449219 39.429688 184.425781 41.316406 181.550781 C 41.316406 181.550781 40.960938 181.195312 40.960938 181.195312 C 38.1875 182.367188 36.054688 185.03125 33.140625 185.8125 C 33.140625 185.8125 32.429688 184.390625 32.429688 184.390625 C 36.128906 182.011719 39.929688 178.421875 44.15625 176.574219 C 44.15625 176.574219 45.222656 178.707031 45.222656 178.707031 Z M 45.222656 178.707031 "/>
<path style=" stroke:none;fill-rule:nonzero;fill:rgb(20%,17.254902%,16.862745%);fill-opacity:1;" d="M 206.894531 182.613281 C 206.074219 184.425781 204.511719 185.917969 203.339844 187.589844 C 204.015625 188.441406 204.832031 188.90625 205.828125 189.011719 C 207.355469 187.945312 208.207031 183.824219 210.445312 185.8125 C 210.945312 187.625 208.5625 189.117188 207.605469 190.789062 C 207.605469 190.789062 210.089844 192.917969 210.089844 192.917969 C 212.363281 191.925781 212.71875 188.621094 215.066406 188.300781 C 215.421875 188.90625 216.523438 189.1875 216.132812 190.078125 C 216.132812 190.078125 210.800781 196.472656 210.800781 196.472656 C 210.800781 196.472656 200.140625 188.300781 200.140625 188.300781 C 201.277344 185.882812 202.878906 183.644531 204.761719 181.550781 C 205.613281 181.515625 206.324219 181.867188 206.894531 182.613281 Z M 206.894531 182.613281 "/>
<path style=" stroke:none;fill-rule:nonzero;fill:rgb(20%,17.254902%,16.862745%);fill-opacity:1;" d="M 54.816406 190.433594 C 55.351562 191.746094 55.351562 193.734375 54.816406 195.050781 C 54.816406 195.050781 53.75 196.117188 53.75 196.117188 C 50.269531 194.765625 54.746094 191.425781 51.261719 190.078125 C 48.242188 189.367188 46.21875 191.925781 44.511719 193.628906 C 44.15625 194.945312 43.625 195.9375 44.511719 197.183594 C 45.472656 198.25 47.175781 198.570312 48.421875 197.894531 C 49.558594 196.6875 45.472656 195.441406 48.421875 194.339844 C 49.699219 194.410156 51.15625 196.332031 51.972656 197.539062 C 50.375 199.136719 48.457031 201.519531 46.289062 202.511719 C 45.898438 202.085938 45.363281 201.765625 45.578125 201.089844 C 45.578125 201.089844 46.289062 200.378906 46.289062 200.378906 C 44.441406 200.203125 42.523438 199.386719 41.671875 197.539062 C 40.425781 193.914062 43.445312 190.859375 45.933594 188.65625 C 48.527344 186.949219 53.359375 186.949219 54.816406 190.433594 Z M 54.816406 190.433594 "/>
<path style=" stroke:none;fill-rule:nonzero;fill:rgb(20%,17.254902%,16.862745%);fill-opacity:1;" d="M 206.539062 201.09375 C 206.429688 201.839844 205.578125 202.265625 205.117188 202.867188 C 200.851562 200.628906 196.445312 198.746094 192.324219 196.117188 C 192.324219 196.117188 194.101562 194.339844 194.101562 194.339844 C 194.101562 194.339844 202.628906 199.316406 202.628906 199.316406 C 202.628906 199.316406 202.984375 198.960938 202.984375 198.960938 C 201.597656 195.976562 198.683594 193.59375 197.65625 190.433594 C 197.65625 190.433594 199.074219 189.011719 199.074219 189.011719 C 199.074219 189.011719 206.539062 201.09375 206.539062 201.09375 Z M 206.539062 201.09375 "/>
<path style=" stroke:none;fill-rule:nonzero;fill:rgb(20%,17.254902%,16.862745%);fill-opacity:1;" d="M 200.496094 207.488281 C 199.894531 207.84375 199.609375 208.945312 198.722656 208.554688 C 198.722656 208.554688 189.835938 198.605469 189.835938 198.605469 C 189.835938 198.605469 191.257812 196.828125 191.257812 196.828125 C 194.492188 199.992188 198.402344 203.828125 200.496094 207.488281 Z M 200.496094 207.488281 "/>
<path style=" stroke:none;fill-rule:nonzero;fill:rgb(20%,17.254902%,16.862745%);fill-opacity:1;" d="M 196.945312 210.6875 C 196.945312 210.6875 195.167969 212.105469 195.167969 212.105469 C 192.003906 211.042969 188.984375 208.519531 185.929688 208.199219 C 187.953125 210.402344 189.625 212.78125 190.902344 215.304688 C 190.902344 215.304688 189.835938 216.371094 189.835938 216.371094 C 186.605469 213.136719 183.796875 209.085938 180.953125 205.355469 C 184.152344 202.15625 187.632812 206.882812 190.902344 207.84375 C 190.902344 207.84375 191.257812 208.199219 191.257812 208.199219 C 191.257812 208.199219 191.613281 207.84375 191.613281 207.84375 C 191.117188 204.824219 185.433594 202.65625 188.0625 199.671875 C 191.1875 202.976562 194.351562 206.847656 196.945312 210.6875 Z M 196.945312 210.6875 "/>
<path style=" stroke:none;fill-rule:nonzero;fill:rgb(20%,17.254902%,16.862745%);fill-opacity:1;" d="M 184.863281 219.210938 C 183.832031 220.527344 182.128906 221.699219 180.246094 221.699219 C 177.332031 222.199219 176.300781 218.785156 174.914062 217.082031 C 174.308594 214.699219 170.011719 211.820312 173.136719 209.972656 C 175.839844 212.53125 176.867188 216.761719 179.890625 219.210938 C 181.238281 219.640625 181.914062 218.574219 182.730469 217.792969 C 181.84375 214.0625 179.035156 211.074219 177.757812 207.488281 C 178.574219 207.132812 179.960938 205.53125 180.246094 207.488281 C 182.164062 211.253906 185.894531 214.664062 184.863281 219.210938 Z M 184.863281 219.210938 "/>
<path style=" stroke:none;fill-rule:nonzero;fill:rgb(20%,17.254902%,16.862745%);fill-opacity:1;" d="M 80.398438 211.039062 C 78.019531 214.523438 76.667969 218.785156 73.648438 221.699219 C 72.6875 222.234375 71.054688 222.234375 70.09375 221.699219 C 67.890625 220.632812 68.140625 218.109375 68.675781 216.371094 C 69.136719 215.945312 69.136719 215.304688 69.738281 214.949219 C 70.449219 215.054688 70.878906 215.765625 71.515625 216.015625 C 70.769531 216.796875 70.804688 217.898438 70.449219 218.855469 C 70.878906 219.496094 71.480469 219.675781 72.226562 219.566406 C 75 216.691406 76.242188 213.171875 78.269531 209.972656 C 79.296875 209.582031 79.546875 211.074219 80.398438 211.039062 Z M 80.398438 211.039062 "/>
<path style=" stroke:none;fill-rule:nonzero;fill:rgb(20%,17.254902%,16.862745%);fill-opacity:1;" d="M 83.953125 212.816406 C 82.425781 217.117188 80.152344 221.097656 78.269531 225.253906 C 77.523438 224.753906 75.496094 225.074219 76.136719 223.476562 C 76.136719 223.476562 82.175781 212.105469 82.175781 212.105469 C 82.992188 211.820312 83.347656 212.566406 83.953125 212.816406 Z M 83.953125 212.816406 "/>
<path style=" stroke:none;fill-rule:nonzero;fill:rgb(20%,17.254902%,16.862745%);fill-opacity:1;" d="M 151.109375 222.765625 C 151.996094 224.828125 149.472656 223.191406 148.976562 224.1875 C 148.335938 223.050781 147.058594 221.949219 145.421875 222.410156 C 144.25 223.40625 143.433594 224.542969 143.292969 225.964844 C 143.46875 228.523438 143.964844 231.542969 146.84375 232.359375 C 148.371094 232.324219 149.542969 231.257812 150.042969 229.871094 C 150.253906 229.199219 149.722656 228.878906 149.332031 228.453125 C 148.976562 229.089844 148.160156 228.699219 147.554688 228.808594 C 146.914062 228.308594 147.304688 227.386719 147.199219 226.675781 C 147.199219 226.675781 151.464844 225.964844 151.464844 225.964844 C 152.421875 228.167969 152.457031 230.761719 153.238281 233.070312 C 152.246094 234.066406 151.390625 232.785156 150.753906 232.359375 C 150.078125 234.207031 148.160156 234.5625 146.488281 234.847656 C 142.828125 234.351562 141.585938 230.335938 140.804688 227.386719 C 140.589844 225.039062 141.335938 223.085938 142.582031 221.34375 C 144.996094 218.609375 149.472656 220.171875 151.109375 222.765625 Z M 151.109375 222.765625 "/>
<path style=" stroke:none;fill-rule:nonzero;fill:rgb(20%,17.254902%,16.862745%);fill-opacity:1;" d="M 116.289062 222.054688 C 116.570312 223.121094 115.824219 223.726562 115.578125 224.542969 C 114.972656 223.761719 113.695312 224.613281 113.089844 223.832031 C 113.089844 223.832031 112.378906 224.542969 112.378906 224.542969 C 112.378906 224.542969 110.957031 234.847656 110.957031 234.847656 C 110.460938 235.484375 109.535156 235.09375 108.824219 235.203125 C 108.824219 235.203125 108.46875 234.492188 108.46875 234.492188 C 108.46875 234.492188 109.890625 223.832031 109.890625 223.832031 C 108.824219 223.582031 107.972656 222.835938 106.695312 223.121094 C 106.695312 223.121094 107.050781 220.632812 107.050781 220.632812 C 107.050781 220.632812 116.289062 222.054688 116.289062 222.054688 Z M 116.289062 222.054688 "/>
<path style=" stroke:none;fill-rule:nonzero;fill:rgb(20%,17.254902%,16.862745%);fill-opacity:1;" d="M 139.738281 235.203125 C 139.277344 236.339844 138.101562 235.769531 137.25 235.914062 C 135.226562 233.210938 134.300781 230.085938 132.277344 227.386719 C 131.210938 230.335938 132.808594 233.070312 132.277344 236.269531 C 132.277344 236.269531 130.144531 236.269531 130.144531 236.269531 C 130.144531 236.269531 129.078125 222.765625 129.078125 222.765625 C 129.683594 222.125 130.75 222.515625 131.566406 222.410156 C 131.566406 222.410156 136.539062 230.582031 136.539062 230.582031 C 137.5 227.847656 136.292969 225.148438 136.183594 222.410156 C 136.648438 221.523438 137.535156 221.734375 138.316406 221.699219 C 138.316406 221.699219 139.738281 235.203125 139.738281 235.203125 Z M 139.738281 235.203125 "/>
<path style=" stroke:none;fill-rule:nonzero;fill:rgb(20%,17.254902%,16.862745%);fill-opacity:1;" d="M 100.652344 229.871094 C 99.480469 230.582031 98.273438 230.582031 97.101562 229.871094 C 95.925781 228.417969 96.316406 225.859375 96.746094 224.1875 C 97.5625 223.226562 97.882812 221.773438 99.230469 221.34375 C 101.007812 220.847656 101.824219 222.269531 102.429688 223.476562 C 102.890625 226.035156 101.789062 227.953125 100.652344 229.871094 Z M 97.101562 219.214844 C 93.9375 222.019531 92.800781 226.105469 93.902344 230.226562 C 94.859375 232.21875 96.921875 233.105469 98.875 233.425781 C 100.332031 233.175781 101.648438 232.644531 102.785156 231.648438 C 104.84375 228.84375 106.160156 224.792969 104.5625 221.34375 C 103.105469 218.894531 99.65625 217.613281 97.101562 219.214844 Z M 97.101562 219.214844 "/>
<path style=" stroke:none;fill-rule:nonzero;fill:rgb(20%,17.254902%,16.862745%);fill-opacity:1;" d="M 123.039062 233.78125 C 121.121094 234.492188 119.519531 232.785156 119.128906 231.292969 C 119.203125 228.949219 118.703125 226.355469 120.90625 224.898438 C 122.96875 224.328125 124.460938 225.609375 124.816406 227.386719 C 124.742188 229.730469 125.242188 232.324219 123.039062 233.78125 Z M 126.945312 224.898438 C 125.773438 222.410156 123.25 221.628906 120.550781 222.054688 C 117.671875 223.191406 116.214844 226.175781 116.289062 229.160156 C 116.464844 231.898438 117.035156 234.777344 119.484375 236.269531 C 121.867188 237.050781 124.636719 236.625 126.238281 234.492188 C 127.550781 231.71875 128.296875 227.882812 126.945312 224.898438 Z M 126.945312 224.898438 "/>
<path style=" stroke:none;fill-rule:nonzero;fill:rgb(20%,17.254902%,16.862745%);fill-opacity:1;" d="M 88.214844 223.476562 C 87.292969 223.761719 86.796875 223.015625 86.085938 222.765625 C 86.085938 222.765625 88.570312 219.570312 88.570312 219.570312 C 88.570312 219.570312 88.214844 223.476562 88.214844 223.476562 Z M 88.570312 215.304688 C 88.570312 215.304688 80.042969 226.320312 80.042969 226.320312 C 80.042969 226.320312 80.398438 226.675781 80.398438 226.675781 C 82.320312 228.949219 82.746094 225.609375 84.308594 224.898438 C 84.308594 224.898438 84.664062 225.253906 84.664062 225.253906 C 89.390625 224.613281 85.941406 230.511719 89.992188 230.226562 C 89.992188 230.226562 91.414062 217.4375 91.414062 217.4375 C 92.304688 215.339844 89.816406 215.269531 88.570312 215.304688 Z M 88.570312 215.304688 "/>
<path style=" stroke:none;fill-rule:nonzero;fill:rgb(20%,17.254902%,16.862745%);fill-opacity:1;" d="M 28.878906 147.792969 C 26.925781 148.683594 26.710938 146.335938 26.390625 145.308594 C 25.789062 143.601562 27.988281 144.167969 28.878906 143.886719 C 28.34375 145.414062 29.945312 146.480469 28.878906 147.792969 Z M 23.546875 149.214844 C 21.097656 150.140625 20.882812 147.828125 20.351562 146.371094 C 20.207031 144.488281 22.554688 145.589844 23.546875 144.953125 C 23.230469 146.515625 24.507812 147.828125 23.546875 149.214844 Z M 30.65625 140.6875 C 26.535156 141.824219 22.164062 142.464844 17.863281 143.175781 C 17.863281 143.175781 17.152344 143.886719 17.152344 143.886719 C 17.152344 143.886719 18.574219 150.28125 18.574219 150.28125 C 19.570312 151.632812 20.882812 152.234375 22.484375 152.058594 C 23.832031 151.738281 25.539062 151.558594 26.035156 149.925781 C 26.035156 149.925781 28.167969 150.636719 28.167969 150.636719 C 29.375 150.140625 30.902344 150.351562 31.722656 148.859375 C 32.964844 145.910156 31.011719 143.421875 30.65625 140.6875 Z M 30.65625 140.6875 "/>
</g>
</svg>
