<?xml version="1.0" encoding="utf-8"?>
<!-- Generator: Adobe Illustrator 16.0.0, SVG Export Plug-In . SVG Version: 6.00 Build 0)  -->
<!DOCTYPE svg PUBLIC "-//W3C//DTD SVG 1.1//EN" "http://www.w3.org/Graphics/SVG/1.1/DTD/svg11.dtd">
<svg version="1.1" id="Layer_1" xmlns="http://www.w3.org/2000/svg" xmlns:xlink="http://www.w3.org/1999/xlink" x="0px" y="0px"
	 width="960px" height="960px" viewBox="0 0 960 960" enable-background="new 0 0 960 960" xml:space="preserve">
<g>
	<g>
		<g>
			<path fill="#0073AA" d="M331.326,171.861h407.961v-30.566c0-25.226-17.238-45.847-38.252-45.847H553.781l-0.649-27.016
				C553.132,30.449,506.88,0,475.294,0h-97.929c-15.301,0-33.022,5.346-43.903,18.389c-10.883,13.041-31.846,30.361-31.846,48.743
				v28.355H151.589c-21.048-0.04-38.253,20.579-38.253,45.807v409.461l128.598-312.26
				C257.541,200.47,296.032,171.861,331.326,171.861z M358.223,68.752c0-6.073,2.074-11.82,5.644-16.14
				c3.571-4.401,8.722-10.829,13.788-10.829h98.788c10.575,0,17.925,14.294,17.925,26.968v26.734H358.224L358.223,68.752
				L358.223,68.752z"/>
			<path fill="#0073AA" d="M880.807,217.628H331.326c-21.014,0-45.87,18.503-55.084,41.08L128.467,617.513
				c-9.317,22.537,0.306,41.038,21.32,41.038h549.48c21.015,0,45.904-18.459,55.154-41.038l147.74-358.805
				C911.444,236.13,901.89,217.628,880.807,217.628z"/>
		</g>
	</g>
</g>
<text transform="matrix(1 0 0 1 0 880.5371)" fill="#0073AA" font-family="'TamilMN'" font-size="235.0711">Archives</text>
</svg>
