<?xml version="1.0" encoding="utf-8"?>
<!-- Generator: Adobe Illustrator 21.0.0, SVG Export Plug-In . SVG Version: 6.00 Build 0)  -->
<svg version="1.1" id="Layer_1" xmlns="http://www.w3.org/2000/svg" xmlns:xlink="http://www.w3.org/1999/xlink" x="0px" y="0px"
	 viewBox="0 0 960 960" style="enable-background:new 0 0 960 960;" xml:space="preserve">
<style type="text/css">
	.st0{fill:#BAD9F9;stroke:#000000;stroke-width:20;stroke-miterlimit:10;}
	.st1{fill:#C66161;}
	.st2{font-family:'TamilMN';}
	.st3{font-size:235.0711px;}
</style>
<g>
	<g>
		<g>
			<path class="st0" d="M331.3,171.9h408v-30.6c0-25.2-17.2-45.8-38.3-45.8H553.8l-0.6-27c0-38-46.3-68.4-77.8-68.4h-97.9
				c-15.3,0-33,5.3-43.9,18.4c-10.9,13-31.8,30.4-31.8,48.7v28.4h-150c-21,0-38.3,20.6-38.3,45.8v409.5l128.6-312.3
				C257.5,200.5,296,171.9,331.3,171.9z M358.2,68.8c0-6.1,2.1-11.8,5.6-16.1c3.6-4.4,8.7-10.8,13.8-10.8h98.8
				c10.6,0,17.9,14.3,17.9,27v26.7H358.2L358.2,68.8L358.2,68.8z"/>
			<path class="st0" d="M880.8,217.6H331.3c-21,0-45.9,18.5-55.1,41.1L128.5,617.5c-9.3,22.5,0.3,41,21.3,41h549.5
				c21,0,45.9-18.5,55.2-41l147.7-358.8C911.4,236.1,901.9,217.6,880.8,217.6z"/>
		</g>
	</g>
</g>
<text transform="matrix(1 0 0 1 0 880.5371)" class="st1 st2 st3">Archives</text>
</svg>
