<?xml version="1.0" encoding="utf-8"?>
<!-- Generator: Adobe Illustrator 21.0.0, SVG Export Plug-In . SVG Version: 6.00 Build 0)  -->
<svg version="1.1" id="Calque_1" xmlns="http://www.w3.org/2000/svg" xmlns:xlink="http://www.w3.org/1999/xlink" x="0px" y="0px"
	 viewBox="0 0 640 480" style="enable-background:new 0 0 640 480;" xml:space="preserve">
<style type="text/css">
  .st0{
	fill: #fff;
	}
</style>
<g>
	<path class="st0" d="M412.1,313.8c-9.8,15.8-16,32.4-15.2,51.7c-3.6-4.4-7.2-8.9-10.7-13.3c-0.5,0.1-1,0.2-1.5,0.4
		c0.6,4.4,0.7,9,2,13.2c2.3,7.3,1.8,12.2-4,17.1c-9.1,7.6-18.4,14.9-27.9,21.8c-4,2.9-9.1,4.1-13.1,6.9c-7.7,5.4-14.3,11.8-18,20.8
		c-0.6,1.5-1.8,2.7-3,4.5c-7-7.5-13.6-14.7-20.4-22.1c-1.8,1.2-3.3,2.1-4.7,3c-11.6-8.5-23-16.9-34.5-25.3c-2.7-2-5.5-3.7-8.1-5.7
		c-7.9-6-9.2-13.9-6.8-23.2c1-4,0.9-8.3,0.3-12.6c-3.3,4.8-6.6,9.7-10.1,14.4c-0.7,0.9-1.9,1.3-2.9,2c-0.3-1.1-0.9-2.4-0.7-3.4
		c3.5-18.5-2.7-34.6-13-49.8c0.7,4.2,1.4,8.4,2.2,12.6c0.8,4.3,1.8,8.6,2.9,14.2c-11.3-12.5-18.5-26-19.4-41.4
		c-0.8-14,1.1-28.1,2-42.2c0.5-8.4,1.3-16.8,3-25.4c0.5,1.6,1,3.2,1.5,4.8c5.4,18,10.2,36.1,16.3,53.8c4.3,12.5,9.8,24.7,15.7,36.5
		c5.7,11.4,16.6,15.3,28.6,15.9c8.3,0.4,16.6,0.1,24.5,0.1c-2.7,3.7-5.9,8.2-9.1,12.8c0.4,0.4,0.8,0.7,1.2,1.1
		c6-5.6,12.1-11.1,18.5-17.1c-3.2-2.8-6.6-5.8-10.7-9.4c12.7,0,24.5,0,37.1,0c-2.5,2.2-4.7,4.2-7,6.1c-1.9,1.5-2.5,2.9-0.5,4.9
		c5.3,5,10.4,10.2,15.7,15.2c0.3,0.3,1.4-0.1,3-0.3c-3.1-4.2-5.7-7.9-9-12.4c8.7-0.3,16.9-0.3,25-1.1c5.2-0.5,10.6-1.5,15.2-3.8
		c6.5-3.3,10.6-9.3,13.4-16.1c2.1-5.1,5.1-9.7,7.1-14.8c4.3-10.9,8.4-22,12.3-33.1c4.5-13,8.8-26.1,14.2-39.3
		c1.1,21.2,3.3,42.3,3,63.5c-0.2,15.5-7.4,29.4-19,41.1C409.2,331.5,410.7,322.7,412.1,313.8z"/>
	<path class="st0" d="M314.2,227.1c-1.9,3.3-4.3,6.5-5.5,10c-5.6,16-13.9,29.6-30.4,36.2c-16.1,6.4-31.9,5.1-46.4-3.8
		c-8.9-5.4-12.1-15.3-14.9-25.1c-2.3-7.9-4.9-15.8-8-23.4c-3.6-8.6,0.4-16.6,9.7-18.1c23.4-4,47.1-6.5,70.4-0.6
		c16.6,4.2,32.4,2.2,48.9,0.4c16.5-1.8,33.2-1.2,49.8-1.1c9.1,0.1,18.3,1.2,27.4,1.9c7,0.6,10.2,4.5,8.9,11.6
		c-0.6,3.5-2.4,6.8-3.7,10.3c-1.8,5.1-3.6,10.2-5.4,15.3c-2.3,6.4-4,13.1-7,19.1c-7.2,14.1-20.4,17.1-34.7,17
		c-21.8-0.2-37-10.9-46.6-30.1c-0.5-1-0.8-2.2-0.9-3.3C325.1,236.3,322,230.9,314.2,227.1z M406.3,236.3c-0.5-5.2-0.7-9.2-1.2-13.2
		c-0.8-7.6-4.7-12.6-12.1-13.9c-15.8-2.8-31.9-3.7-47.2,2.2c-9.4,3.6-13.3,7.3-13,18.2c0.3,12,5.8,21.8,14.4,29.6
		c8.2,7.5,18.8,8.4,29.4,8.8c13.7,0.5,24-6.7,27.7-19.6C405.6,244.2,405.8,239.6,406.3,236.3z M227.4,233.4
		c0.6,5.3,1.2,12.3,2.3,19.2c0.8,5.1,4,8.9,8.7,10.7c5.1,1.9,10.4,3.7,15.8,4.2c14.8,1.3,28.7-1.7,37-15.3
		c3.9-6.3,5.7-14.1,7.4-21.5c2.4-10.5-1.7-16.3-12.2-19c-1.6-0.4-3.2-0.8-4.8-1.3c-13.9-4.2-27.8-4.5-41.7-0.5
		c-6,1.7-11,4.8-11.8,11.9C227.7,225.1,227.7,228.4,227.4,233.4z"/>
	<path class="st0" d="M388.9,106.7c-2.5,0.7-4.9,1.4-7.4,2.2c11.5,0.8,21.9,4,30.7,11.2c9.5,7.7,10.6,19,13.1,30.6
		c-5.4,0-10,0-14.7,0c12.8,8.4,24.8,2.5,37.3-1.3c-0.9,5-1.4,9.6-6.2,12.9c-6.3,4.3-5.7,11.6-6.4,18.1c-0.9,8.4-1.3,16.8-2.1,26.3
		c-6.6-4.2-12.4-7.8-17.9-11.6c-0.9-0.6-1.3-2.5-1.4-3.9c-0.2-4.7-0.3-9.3,0-14c0.3-3.9-0.9-5.9-4.8-7.3
		c-21.1-7.9-42.1-16.2-63.2-24.1c-3.6-1.3-4.1,0.7-4-3c0,0-92.7,7.4-93.2,0.6c-0.2-2.8,95.5-33.7,98.2-34.6
		C360.7,104.4,374.6,103.2,388.9,106.7z"/>
	<path class="st0" d="M248.9,308.9c8.8-5.1,16.3-9.4,23.7-13.8c4.1-2.5,8-5.4,12.1-7.7c9.1-5.2,17.5-3.3,25.2,3.3
		c5.7,4.9,5.6,4.8,11.9,0.6c3.4-2.3,6.9-4.7,10.6-6.2c7.2-2.8,13.3,1.2,19.1,4.7c9.9,5.9,19.6,12.3,30.1,18.9
		c-6.9,3.9-13.7,6.9-21,7.1c-7.8,0.2-15.9-0.4-23.6-2.1c-14.9-3.3-29.5-3.8-44.2,0.9c-10.6,3.3-21.3,2.6-31.8-1.3
		C257.5,311.8,253.8,310.6,248.9,308.9z"/>
	<path class="st0" d="M343.2,75.5c23-3.4,44.4-2.4,56.2,22.4c-12.8-2.2-25.7-1.4-38.4,2.5c-3.7,1.1-7.4,2.5-11.2,3.6
		c-4.1,1.2-6.3-1.5-6.5-4.8C342.9,91.2,343.2,83.3,343.2,75.5z"/>
	<path class="st0" d="M207.1,198.7c0-10.3-0.2-20.2,0.2-30.1c0-1.5,2-3.7,3.5-4.3c3.3-1.4,6.9-2.1,11.5-3.4c-1,5.9-1.8,11-2.7,16.1
		c-0.8,4.4-1.7,8.8-2.5,13.2C215.8,197.6,215.8,197.6,207.1,198.7z"/>
	<path class="st0" d="M205.4,145.1c0-11.9,0.8-12.5,13.3-8.1c6.2,2.2,11.9,5.3,17.8,8.1c4.1,1.9,3,4.6-0.3,5.4
		c-9,2.1-18.2,3.7-27.3,5.1c-0.9,0.1-2.9-2.1-3.3-3.5C205,149.9,205.4,147.5,205.4,145.1z"/>
</g>
<polyline class="st0" points="343.2,75 325.9,79.1 315.3,83.1 299.2,88.7 284,97.1 253,111.5 248.9,124.6 248.9,129.1 248.9,137.6
	271,124.6 349.8,103.5 "/>
<polyline class="st0" points="205.6,152.1 207.3,168.6 222.3,160.8 222.2,151.4 "/>
</svg>
