<?xml version="1.0" encoding="utf-8"?>
<!-- Generator: Adobe Illustrator 21.0.0, SVG Export Plug-In . SVG Version: 6.00 Build 0)  -->
<svg version="1.1" id="Layer_1" xmlns="http://www.w3.org/2000/svg" xmlns:xlink="http://www.w3.org/1999/xlink" x="0px" y="0px"
	 viewBox="0 0 960 960" style="enable-background:new 0 0 960 960;" xml:space="preserve">
<style type="text/css">
	.st0{fill:#C6E0F4;stroke:#000000;stroke-width:20;stroke-miterlimit:10;}
	.st1{fill:#C66161;}
	.st2{font-family:'TamilMN';}
	.st3{font-size:240.8945px;}
</style>
<path class="st0" d="M821.8,620.5h-43.6V318.1l28.6,20.3c6.6,4.7,15.4,5.3,22.6,1.6c7.3-3.7,11.8-11.2,11.8-19.4v-58.2
	c0-7.1-3.4-13.7-9.2-17.8l-133.8-94.9V57c0-12.1-9.8-21.8-21.8-21.8c-12,0-21.8,9.8-21.8,21.8v61.8L492.6,4
	c-7.6-5.4-17.7-5.4-25.2,0L128,244.6c-5.8,4.1-9.2,10.7-9.2,17.8v58.2c0,8.2,4.6,15.6,11.8,19.4c3.2,1.6,6.6,2.4,10,2.4
	c4.4,0,8.9-1.4,12.6-4l28.6-20.3v302.4h-43.6c-12,0-21.8,9.8-21.8,21.8s9.8,21.8,21.8,21.8h65.4h202.7h147.3h202.7h65.4
	c12,0,21.8-9.8,21.8-21.8C843.6,630.3,833.8,620.5,821.8,620.5z M575.5,620.5V373.1c0-12.1-9.8-21.8-21.8-21.8H406.3
	c-12,0-21.8,9.8-21.8,21.8v247.4h-159V292.1c0-1.6-0.2-3.1-0.5-4.6l255-180.8l255,180.8c-0.3,1.5-0.5,3-0.5,4.6v328.5H575.5
	L575.5,620.5z"/>
<text transform="matrix(1 0 0 1 136.501 876.9902)" class="st1 st2 st3">Home</text>
</svg>
