<?xml version="1.0" encoding="utf-8"?>
<!-- Generator: Adobe Illustrator 21.0.0, SVG Export Plug-In . SVG Version: 6.00 Build 0)  -->
<svg version="1.1" id="Capa_1" xmlns="http://www.w3.org/2000/svg" xmlns:xlink="http://www.w3.org/1999/xlink" x="0px" y="0px"
	 viewBox="0 0 960 960" style="enable-background:new 0 0 960 960;" xml:space="preserve">
<style type="text/css">
	.st0{fill:#BAD9F9;stroke:#000000;stroke-width:20;stroke-miterlimit:10;}
	.st1{fill:#C66161;}
	.st2{font-family:'TamilMN';}
	.st3{font-size:246.7203px;}
</style>
<g>
	<g>
		<path class="st0" d="M747.5,390.5c0-15.1-5.4-28.3-16.1-39.7L419.8,39.7c-11-11-25.9-20.4-44.5-28.1C356.8,3.8,339.8,0,324.4,0
			H143.1c-15.1,0-28.2,5.5-39.2,16.6c-11,11-16.6,24.1-16.6,39.2v181.3c0,15.4,3.8,32.4,11.5,51c7.7,18.6,17.1,33.3,28.1,44
			l311.6,312c10.8,10.7,23.8,16.1,39.2,16.1c15.1,0,28.3-5.4,39.7-16.1l214-214.4C742.2,419,747.5,405.9,747.5,390.5z M266.2,178.9
			c-10.9,10.9-24,16.3-39.4,16.3c-15.4,0-28.5-5.4-39.4-16.3c-10.9-10.9-16.3-24-16.3-39.4c0-15.4,5.4-28.5,16.3-39.4
			c10.9-10.9,24-16.3,39.4-16.3c15.4,0,28.5,5.5,39.4,16.3c10.9,10.9,16.3,24,16.3,39.4C282.5,154.9,277.1,168,266.2,178.9z"/>
		<path class="st0" d="M898.8,350.8L587.1,39.7c-11-11-25.9-20.4-44.5-28.1C524.1,3.9,507.1,0,491.7,0h-97.6
			c15.4,0,32.4,3.8,51,11.5c18.6,7.7,33.4,17.1,44.5,28.1l311.6,311.2c10.8,11.3,16.1,24.6,16.1,39.7c0,15.4-5.4,28.5-16.1,39.2
			L596.3,634.5c8.7,9,16.4,15.5,23.1,19.6c6.7,4.1,15.3,6.1,25.7,6.1c15.1,0,28.3-5.4,39.7-16.1l214-214.4
			c10.8-10.8,16.1-23.8,16.1-39.2C914.9,375.4,909.5,362.2,898.8,350.8z"/>
	</g>
</g>
<text transform="matrix(1 0 0 1 217.166 874.9717)" class="st1 st2 st3">Tags</text>
</svg>
