<?xml version="1.0" encoding="utf-8"?>
<!-- Generator: Adobe Illustrator 16.0.0, SVG Export Plug-In . SVG Version: 6.00 Build 0)  -->
<!DOCTYPE svg PUBLIC "-//W3C//DTD SVG 1.1//EN" "http://www.w3.org/Graphics/SVG/1.1/DTD/svg11.dtd">
<svg version="1.1" id="Capa_1" xmlns="http://www.w3.org/2000/svg" xmlns:xlink="http://www.w3.org/1999/xlink" x="0px" y="0px"
	 width="960px" height="960px" viewBox="0 0 960 960" enable-background="new 0 0 960 960" xml:space="preserve">
<g>
	<g>
		<path fill="#0073AA" d="M747.531,390.49c0-15.106-5.376-28.329-16.127-39.664L419.806,39.659
			c-11.04-11.049-25.857-20.414-44.452-28.111C356.761,3.85,339.759,0,324.36,0H143.064c-15.105,0-28.183,5.524-39.219,16.56
			C92.801,27.601,87.281,40.675,87.281,55.786v181.296c0,15.398,3.845,32.389,11.546,50.989c7.702,18.6,17.077,33.265,28.112,44.019
			l311.604,312.037c10.752,10.748,23.825,16.124,39.219,16.124c15.109,0,28.336-5.376,39.664-16.124l213.982-214.417
			C742.155,418.955,747.531,405.889,747.531,390.49z M266.185,178.901c-10.897,10.897-24.045,16.346-39.445,16.346
			c-15.394,0-28.54-5.45-39.438-16.346c-10.896-10.898-16.341-24.041-16.341-39.438c0-15.401,5.445-28.548,16.341-39.439
			c10.898-10.896,24.044-16.348,39.438-16.348c15.4,0,28.548,5.452,39.445,16.348c10.891,10.891,16.344,24.039,16.344,39.439
			C282.528,154.86,277.076,168.003,266.185,178.901z"/>
		<path fill="#0073AA" d="M898.754,350.832L587.146,39.665c-11.034-11.048-25.855-20.414-44.45-28.112
			c-18.59-7.697-35.585-11.545-50.989-11.545h-97.619c15.399,0,32.394,3.848,50.986,11.545c18.6,7.703,33.417,17.069,44.458,28.112
			l311.6,311.167c10.758,11.329,16.135,24.551,16.135,39.658c0,15.399-5.377,28.461-16.135,39.219L596.298,634.54
			c8.73,9.006,16.423,15.542,23.1,19.611c6.688,4.068,15.259,6.102,25.713,6.102c15.116,0,28.337-5.374,39.654-16.127
			l213.989-214.417c10.75-10.754,16.132-23.817,16.132-39.22C914.883,375.382,909.507,362.161,898.754,350.832z"/>
	</g>
</g>
<text transform="matrix(1 0 0 1 217.166 874.9717)" fill="#0073AA" font-family="'TamilMN'" font-size="246.7203">Tags</text>
</svg>
