<?xml version="1.0" encoding="utf-8"?>
<!-- Generator: Adobe Illustrator 16.0.0, SVG Export Plug-In . SVG Version: 6.00 Build 0)  -->
<!DOCTYPE svg PUBLIC "-//W3C//DTD SVG 1.1//EN" "http://www.w3.org/Graphics/SVG/1.1/DTD/svg11.dtd">
<svg version="1.1" id="Capa_1" xmlns="http://www.w3.org/2000/svg" xmlns:xlink="http://www.w3.org/1999/xlink" x="0px" y="0px"
	 width="960px" height="960px" viewBox="0 0 960 960" enable-background="new 0 0 960 960" xml:space="preserve">
<g>
	<g>
		<path fill="#0073AA" d="M480,343.092c79.311,0,143.611-75.258,143.611-168.093C623.611,46.262,559.313,6.907,480,6.907
			c-79.317,0-143.613,39.355-143.613,168.092C336.389,267.833,400.685,343.092,480,343.092z"/>
		<path fill="#0073AA" d="M797.129,590.504l-72.458-163.218c-3.31-7.468-9.137-13.663-16.381-17.436l-112.445-58.537
			c-2.481-1.287-5.482-1.035-7.712,0.65c-31.804,24.055-69.197,36.77-108.133,36.77c-38.944,0-76.333-12.714-108.137-36.77
			c-2.235-1.688-5.238-1.937-7.716-0.65l-112.438,58.537c-7.249,3.772-13.065,9.964-16.382,17.436l-72.455,163.218
			c-4.995,11.252-3.971,24.125,2.74,34.446c6.708,10.32,18.06,16.479,30.368,16.479h568.036c12.308,0,23.664-6.161,30.373-16.48
			S802.124,601.75,797.129,590.504z"/>
	</g>
</g>
<text transform="matrix(1 0 0 1 123.501 875.4971)" fill="#0073AA" font-family="'TamilMN'" font-size="247.0266">About</text>
</svg>
