<?xml version="1.0" encoding="utf-8"?>
<!-- Generator: Adobe Illustrator 16.0.0, SVG Export Plug-In . SVG Version: 6.00 Build 0)  -->
<!DOCTYPE svg PUBLIC "-//W3C//DTD SVG 1.1//EN" "http://www.w3.org/Graphics/SVG/1.1/DTD/svg11.dtd">
<svg version="1.1" id="Capa_1" xmlns="http://www.w3.org/2000/svg" xmlns:xlink="http://www.w3.org/1999/xlink" x="0px" y="0px"
	 width="960px" height="960px" viewBox="0 0 960 960" enable-background="new 0 0 960 960" xml:space="preserve">
<g>
	<g>
		<g>
			<path fill="#ab3d3d" d="M465.391,350.454c43.122,0,53.417-35.529,53.417-65.335c0-29.807-23.92-53.974-53.417-53.974
				s-53.426,24.17-53.426,53.974C411.965,314.925,426.136,350.454,465.391,350.454z"/>
			<path fill="#ab3d3d" d="M472.832,357.956h-7.441h-7.442c-29.284,0-73.193,27.103-73.193,60.555
				c0,33.452-9.93,60.565,19.347,60.565h61.292h61.293c29.276,0,19.347-27.113,19.347-60.565
				C546.035,385.059,502.116,357.956,472.832,357.956z"/>
			<path fill="#ab3d3d" d="M479.987,0C293.421,0,142.169,152.827,142.169,341.337c0,188.511,151.252,341.336,337.818,341.336
				c186.581,0,337.844-152.832,337.844-341.336C817.831,152.823,666.568,0,479.987,0z M617.272,494.109v23.607
				c0,13.037-10.46,23.605-23.363,23.605h-23.363H441.59h-81.338c-25.807,0-46.732-21.141-46.732-47.215V197.042
				c0-26.074,20.924-47.216,46.732-47.216h81.335h128.954h23.363c12.904,0,23.366,10.569,23.366,23.606v23.61h0.002V494.109
				L617.272,494.109z M664.003,197.042v297.067v23.607c0,13.037-10.461,23.605-23.363,23.605h-6.32
				c3.994-6.958,6.32-15.003,6.32-23.605v-23.607V197.042v-23.606c0-8.604-2.326-16.655-6.32-23.608h6.32
				c12.902,0,23.363,10.571,23.363,23.608V197.042z"/>
		</g>
	</g>
</g>
<text transform="matrix(1 0 0 1 6 876.9668)" fill="#ab3d3d" font-family="'TamilMN'" font-size="242.6749">Contact</text>
</svg>
