<?xml version="1.0" encoding="utf-8"?>
<!-- Generator: Adobe Illustrator 21.0.0, SVG Export Plug-In . SVG Version: 6.00 Build 0)  -->
<svg version="1.1" id="Capa_1" xmlns="http://www.w3.org/2000/svg" xmlns:xlink="http://www.w3.org/1999/xlink" x="0px" y="0px"
	 viewBox="0 0 960 960" style="enable-background:new 0 0 960 960;" xml:space="preserve">
<style type="text/css">
	.st0{fill:#BAD9F9;stroke:#000000;stroke-width:20;stroke-miterlimit:10;}
	.st1{fill:#C66161;}
	.st2{font-family:'TamilMN';}
	.st3{font-size:242.6749px;}
</style>
<g>
	<g>
		<g>
			<path class="st0" d="M465.4,350.5c43.1,0,53.4-35.5,53.4-65.3c0-29.8-23.9-54-53.4-54s-53.4,24.2-53.4,54
				C412,314.9,426.1,350.5,465.4,350.5z"/>
			<path class="st0" d="M472.8,358h-7.4h-7.4c-29.3,0-73.2,27.1-73.2,60.6s-9.9,60.6,19.3,60.6h61.3h61.3
				c29.3,0,19.3-27.1,19.3-60.6S502.1,358,472.8,358z"/>
			<path class="st0" d="M480,0C293.4,0,142.2,152.8,142.2,341.3c0,188.5,151.3,341.3,337.8,341.3c186.6,0,337.8-152.8,337.8-341.3
				C817.8,152.8,666.6,0,480,0z M643,494.1L643,494.1c0,13-36.2,47.2-48.1,47.2h-23.4h-130h-81.3c-25.8,0-46.7-21.1-46.7-47.2V197
				c0-26.1,20.9-47.2,46.7-47.2h81.3h129l0,0c12.9,0,73.5,68.3,73.5,81.3l0,0l0,0v261.9L643,494.1z"/>
		</g>
	</g>
</g>
<text transform="matrix(1 0 0 1 6 876.9668)" class="st1 st2 st3">Contact</text>
</svg>
