<?xml version="1.0" encoding="utf-8"?>
<!-- Generator: Adobe Illustrator 21.0.0, SVG Export Plug-In . SVG Version: 6.00 Build 0)  -->
<svg version="1.1" id="Calque_1" xmlns="http://www.w3.org/2000/svg" xmlns:xlink="http://www.w3.org/1999/xlink" x="0px" y="0px"
	 viewBox="0 0 612 792" style="enable-background:new 0 0 612 792;" xml:space="preserve">
<style type="text/css">
	.st0{fill:#FFFFFF;}
</style>
<g>
	<path class="st0" d="M107,597c0-133.3,0-266.5,0-399.9c133.2,0,266.4,0,399.8,0c0,133.2,0,266.6,0,399.9
		C373.7,597,240.4,597,107,597z M393.1,462.8c-1.5,8.9-2.9,17.7-4.4,26.6c11.6-11.7,18.8-25.5,19-41.1c0.3-21.1-1.9-42.3-3-63.5
		c-5.4,13.3-9.6,26.4-14.2,39.3c-3.9,11.1-7.9,22.1-12.3,33.1c-2,5.1-5.1,9.7-7.1,14.8c-2.8,6.8-6.9,12.8-13.4,16.1
		c-4.5,2.3-10,3.3-15.2,3.8c-8.1,0.8-16.3,0.7-25,1.1c3.3,4.5,5.9,8.1,9,12.4c-1.6,0.2-2.6,0.6-3,0.3c-5.3-5-10.4-10.2-15.7-15.2
		c-2-1.9-1.5-3.3,0.5-4.9c2.3-1.8,4.5-3.9,7-6.1c-12.6,0-24.4,0-37.1,0c4.1,3.6,7.4,6.5,10.7,9.4c-6.5,6-12.5,11.5-18.5,17.1
		c-0.4-0.4-0.8-0.7-1.2-1.1c3.2-4.5,6.4-9,9.1-12.8c-7.9,0-16.3,0.3-24.5-0.1c-12-0.6-22.9-4.5-28.6-15.9
		c-5.9-11.8-11.4-24-15.7-36.5c-6.1-17.7-10.9-35.9-16.3-53.8c-0.5-1.6-1-3.2-1.5-4.8c-1.7,8.6-2.5,17-3,25.4
		c-0.9,14.1-2.8,28.2-2,42.2c0.9,15.4,8.1,28.9,19.4,41.4c-1.2-5.5-2.1-9.8-2.9-14.2c-0.8-4.2-1.5-8.4-2.2-12.6
		c10.3,15.2,16.5,31.3,13,49.8c-0.2,1.1,0.5,2.3,0.7,3.4c1-0.7,2.3-1.1,2.9-2c3.4-4.7,6.7-9.6,10.1-14.4c0.6,4.3,0.7,8.6-0.3,12.6
		c-2.4,9.3-1.1,17.1,6.8,23.2c2.6,2,5.4,3.8,8.1,5.7c11.5,8.4,22.9,16.8,34.5,25.3c1.4-0.9,2.9-1.9,4.7-3
		c6.8,7.4,13.5,14.6,20.4,22.1c1.2-1.7,2.4-3,3-4.5c3.6-9,10.3-15.5,18-20.8c4-2.8,9.2-4.1,13.1-6.9c9.5-7,18.8-14.3,27.9-21.8
		c5.8-4.9,6.2-9.8,4-17.1c-1.3-4.2-1.4-8.8-2-13.2c0.5-0.1,1-0.2,1.5-0.4c3.6,4.4,7.2,8.9,10.7,13.3
		C377.2,495.3,383.3,478.7,393.1,462.8z M295.2,376.1c7.7,3.9,10.8,9.2,11.5,16.2c0.1,1.1,0.4,2.3,0.9,3.3
		c9.6,19.2,24.9,30,46.6,30.1c14.2,0.1,27.5-2.9,34.7-17c3-6,4.7-12.7,7-19.1c1.8-5.1,3.6-10.2,5.4-15.3c1.2-3.4,3-6.7,3.7-10.3
		c1.3-7.2-1.9-11.1-8.9-11.6c-9.1-0.7-18.3-1.9-27.4-1.9c-16.6-0.1-33.4-0.7-49.8,1.1c-16.4,1.8-32.3,3.8-48.9-0.4
		c-23.3-5.9-47-3.4-70.4,0.6c-9.3,1.6-13.3,9.5-9.7,18.1c3.1,7.6,5.7,15.5,8,23.4c2.8,9.8,6,19.7,14.9,25.1
		c14.5,8.9,30.4,10.2,46.4,3.8c16.6-6.6,24.9-20.2,30.4-36.2C291,382.5,293.4,379.4,295.2,376.1z M369.9,255.7
		c-14.3-3.5-28.1-2.3-41.8,2.1c-2.7,0.9-5.9,7.1-5.7,9.9c0.5,6.8,1.2,13.7,0.9,20.5c-0.2,3.6,0.2,5.2,3.8,6.6
		c21.1,7.9,42.1,16.2,63.2,24.1c3.8,1.4,5,3.4,4.8,7.3c-0.3,4.6-0.2,9.3,0,14c0,1.3,0.4,3.2,1.4,3.9c5.6,3.8,11.3,7.4,17.9,11.6
		c0.7-9.4,1.2-17.9,2.1-26.3c0.7-6.5,0.1-13.8,6.4-18.1c4.7-3.3,5.3-7.9,6.2-12.9c-12.5,3.8-24.6,9.7-37.3,1.3c4.7,0,9.4,0,14.7,0
		c-2.5-11.7-3.6-22.9-13.1-30.6c-8.9-7.2-19.2-10.4-30.7-11.2C365,257.1,367.4,256.4,369.9,255.7z M229.9,457.9
		c4.9,1.7,8.7,2.9,12.3,4.3c10.5,4,21.2,4.6,31.8,1.3c14.7-4.6,29.3-4.2,44.2-0.9c7.6,1.7,15.7,2.4,23.6,2.1
		c7.3-0.2,14.1-3.3,21-7.1c-10.5-6.6-20.2-12.9-30.1-18.9c-5.8-3.5-11.9-7.4-19.1-4.7c-3.8,1.4-7.2,3.9-10.6,6.2
		c-6.3,4.3-6.2,4.4-11.9-0.6c-7.7-6.6-16-8.5-25.2-3.3c-4.2,2.4-8,5.3-12.1,7.7C246.2,448.6,238.7,452.8,229.9,457.9z M324.2,218.9
		c0,7.8-0.3,15.7,0.1,23.6c0.2,3.3,2.4,6,6.5,4.8c3.8-1.1,7.4-2.5,11.2-3.6c12.7-3.9,25.6-4.6,38.4-2.5
		C368.6,216.5,347.2,215.5,324.2,218.9z M188.1,347.7c8.7-1,8.7-1,10-8.5c0.8-4.4,1.7-8.8,2.5-13.2c0.9-5.1,1.7-10.2,2.7-16.1
		c-4.6,1.3-8.2,1.9-11.5,3.4c-1.6,0.7-3.5,2.8-3.5,4.3C187.9,327.5,188.1,337.4,188.1,347.7z M195.1,292.5c0,2-0.3,4,0.1,5.9
		c0.3,1.2,1.8,3.1,2.4,3c6.8-1.2,13.6-2.5,20.3-4.3c2.5-0.7,3.3-2.9,0.2-4.6c-4.4-2.4-8.6-5-13.2-6.9
		C195.7,281.9,195.1,282.4,195.1,292.5z"/>
	<path d="M393.1,462.8c-9.8,15.8-16,32.4-15.2,51.7c-3.6-4.4-7.2-8.9-10.7-13.3c-0.5,0.1-1,0.2-1.5,0.4c0.6,4.4,0.7,9,2,13.2
		c2.3,7.3,1.8,12.2-4,17.1c-9.1,7.6-18.4,14.9-27.9,21.8c-4,2.9-9.1,4.1-13.1,6.9c-7.7,5.4-14.3,11.8-18,20.8
		c-0.6,1.5-1.8,2.7-3,4.5c-7-7.5-13.6-14.7-20.4-22.1c-1.8,1.2-3.3,2.1-4.7,3c-11.6-8.5-23-16.9-34.5-25.3c-2.7-2-5.5-3.7-8.1-5.7
		c-7.9-6-9.2-13.9-6.8-23.2c1-4,0.9-8.3,0.3-12.6c-3.3,4.8-6.6,9.7-10.1,14.4c-0.7,0.9-1.9,1.3-2.9,2c-0.3-1.1-0.9-2.4-0.7-3.4
		c3.5-18.5-2.7-34.6-13-49.8c0.7,4.2,1.4,8.4,2.2,12.6c0.8,4.3,1.8,8.6,2.9,14.2c-11.3-12.5-18.5-26-19.4-41.4
		c-0.8-14,1.1-28.1,2-42.2c0.5-8.4,1.3-16.8,3-25.4c0.5,1.6,1,3.2,1.5,4.8c5.4,18,10.2,36.1,16.3,53.8c4.3,12.5,9.8,24.7,15.7,36.5
		c5.7,11.4,16.6,15.3,28.6,15.9c8.3,0.4,16.6,0.1,24.5,0.1c-2.7,3.7-5.9,8.2-9.1,12.8c0.4,0.4,0.8,0.7,1.2,1.1
		c6-5.6,12.1-11.1,18.5-17.1c-3.2-2.8-6.6-5.8-10.7-9.4c12.7,0,24.5,0,37.1,0c-2.5,2.2-4.7,4.2-7,6.1c-1.9,1.5-2.5,2.9-0.5,4.9
		c5.3,5,10.4,10.2,15.7,15.2c0.3,0.3,1.4-0.1,3-0.3c-3.1-4.2-5.7-7.9-9-12.4c8.7-0.3,16.9-0.3,25-1.1c5.2-0.5,10.6-1.5,15.2-3.8
		c6.5-3.3,10.6-9.3,13.4-16.1c2.1-5.1,5.1-9.7,7.1-14.8c4.3-10.9,8.4-22,12.3-33.1c4.5-13,8.8-26.1,14.2-39.3
		c1.1,21.2,3.3,42.3,3,63.5c-0.2,15.5-7.4,29.4-19,41.1C390.2,480.5,391.7,471.7,393.1,462.8z"/>
	<path d="M295.2,376.1c-1.9,3.3-4.3,6.5-5.5,10c-5.6,16-13.9,29.6-30.4,36.2c-16.1,6.4-31.9,5.1-46.4-3.8
		c-8.9-5.4-12.1-15.3-14.9-25.1c-2.3-7.9-4.9-15.8-8-23.4c-3.6-8.6,0.4-16.6,9.7-18.1c23.4-4,47.1-6.5,70.4-0.6
		c16.6,4.2,32.4,2.2,48.9,0.4c16.5-1.8,33.2-1.2,49.8-1.1c9.1,0.1,18.3,1.2,27.4,1.9c7,0.6,10.2,4.5,8.9,11.6
		c-0.6,3.5-2.4,6.8-3.7,10.3c-1.8,5.1-3.6,10.2-5.4,15.3c-2.3,6.4-4,13.1-7,19.1c-7.2,14.1-20.4,17.1-34.7,17
		c-21.8-0.2-37-10.9-46.6-30.1c-0.5-1-0.8-2.2-0.9-3.3C306.1,385.3,303,379.9,295.2,376.1z M387.3,385.3c-0.5-5.2-0.7-9.2-1.2-13.2
		c-0.8-7.6-4.7-12.6-12.1-13.9c-15.8-2.8-31.9-3.7-47.2,2.2c-9.4,3.6-13.3,7.3-13,18.2c0.3,12,5.8,21.8,14.4,29.6
		c8.2,7.5,18.8,8.4,29.4,8.8c13.7,0.5,24-6.7,27.7-19.6C386.6,393.2,386.8,388.6,387.3,385.3z M208.4,382.4
		c0.6,5.3,1.2,12.3,2.3,19.2c0.8,5.1,4,8.9,8.7,10.7c5.1,1.9,10.4,3.7,15.8,4.2c14.8,1.3,28.7-1.7,37-15.3
		c3.9-6.3,5.7-14.1,7.4-21.5c2.4-10.5-1.7-16.3-12.2-19c-1.6-0.4-3.2-0.8-4.8-1.3c-13.9-4.2-27.8-4.5-41.7-0.5
		c-6,1.7-11,4.8-11.8,11.9C208.7,374.1,208.7,377.4,208.4,382.4z"/>
	<path d="M369.9,255.7c-2.5,0.7-4.9,1.4-7.4,2.2c11.5,0.8,21.9,4,30.7,11.2c9.5,7.7,10.6,19,13.1,30.6c-5.4,0-10,0-14.7,0
		c12.8,8.4,24.8,2.5,37.3-1.3c-0.9,5-1.4,9.6-6.2,12.9c-6.3,4.3-5.7,11.6-6.4,18.1c-0.9,8.4-1.3,16.8-2.1,26.3
		c-6.6-4.2-12.4-7.8-17.9-11.6c-0.9-0.6-1.3-2.5-1.4-3.9c-0.2-4.7-0.3-9.3,0-14c0.3-3.9-0.9-5.9-4.8-7.3
		c-21.1-7.9-42.1-16.2-63.2-24.1c-3.6-1.3-4.1,0.7-4-3c0,0-92.7,7.4-93.2,0.6c-0.2-2.8,95.5-33.7,98.2-34.6
		C341.7,253.4,355.6,252.2,369.9,255.7z"/>
	<path d="M229.9,457.9c8.8-5.1,16.3-9.4,23.7-13.8c4.1-2.5,8-5.4,12.1-7.7c9.1-5.2,17.5-3.3,25.2,3.3c5.7,4.9,5.6,4.8,11.9,0.6
		c3.4-2.3,6.9-4.7,10.6-6.2c7.2-2.8,13.3,1.2,19.1,4.7c9.9,5.9,19.6,12.3,30.1,18.9c-6.9,3.9-13.7,6.9-21,7.1
		c-7.8,0.2-15.9-0.4-23.6-2.1c-14.9-3.3-29.5-3.8-44.2,0.9c-10.6,3.3-21.3,2.6-31.8-1.3C238.5,460.8,234.8,459.6,229.9,457.9z"/>
	<path d="M324.2,224.5c23-3.4,44.4-2.4,56.2,22.4c-12.8-2.2-25.7-1.4-38.4,2.5c-3.7,1.1-7.4,2.5-11.2,3.6c-4.1,1.2-6.3-1.5-6.5-4.8
		C323.9,240.2,324.2,232.3,324.2,224.5z"/>
	<path d="M188.1,347.7c0-10.3-0.2-20.2,0.2-30.1c0-1.5,2-3.7,3.5-4.3c3.3-1.4,6.9-2.1,11.5-3.4c-1,5.9-1.8,11-2.7,16.1
		c-0.8,4.4-1.7,8.8-2.5,13.2C196.8,346.6,196.8,346.6,188.1,347.7z"/>
	<path d="M186.4,294.1c0-11.9,0.8-12.5,13.3-8.1c6.2,2.2,11.9,5.3,17.8,8.1c4.1,1.9,3,4.6-0.3,5.4c-9,2.1-18.2,3.7-27.3,5.1
		c-0.9,0.1-2.9-2.1-3.3-3.5C186,298.9,186.4,296.5,186.4,294.1z"/>
	<path class="st0" d="M387.3,385.3c-0.5,3.3-0.6,7.8-1.9,12.1c-3.8,12.9-14,20.1-27.7,19.6c-10.6-0.4-21.2-1.3-29.4-8.8
		c-8.5-7.8-14.1-17.6-14.4-29.6c-0.3-10.9,3.6-14.6,13-18.2c15.3-5.8,31.3-4.9,47.2-2.2c7.4,1.3,11.3,6.3,12.1,13.9
		C386.5,376.1,386.8,380.1,387.3,385.3z"/>
	<path class="st0" d="M208.4,382.4c0.3-5,0.3-8.3,0.7-11.6c0.7-7,5.7-10.1,11.8-11.9c13.9-4,27.9-3.7,41.7,0.5
		c1.6,0.5,3.2,0.9,4.8,1.3c10.5,2.7,14.6,8.4,12.2,19c-1.7,7.4-3.5,15.1-7.4,21.5c-8.3,13.6-22.2,16.6-37,15.3
		c-5.3-0.5-10.7-2.3-15.8-4.2c-4.7-1.8-7.9-5.6-8.7-10.7C209.6,394.7,209,387.7,208.4,382.4z"/>
</g>
<polyline points="324.2,224 306.9,228.1 296.3,232.1 280.2,237.7 265,246.1 234,260.5 229.9,273.6 229.9,278.1 229.9,286.6 
	252,273.6 330.8,252.5 "/>
<polyline points="186.6,301.1 188.3,317.6 203.3,309.8 203.2,300.4 "/>
</svg>
