<?xml version="1.0" encoding="utf-8"?>
<!-- Generator: Adobe Illustrator 16.0.0, SVG Export Plug-In . SVG Version: 6.00 Build 0)  -->
<!DOCTYPE svg PUBLIC "-//W3C//DTD SVG 1.1//EN" "http://www.w3.org/Graphics/SVG/1.1/DTD/svg11.dtd">
<svg version="1.1" id="Layer_1" xmlns="http://www.w3.org/2000/svg" xmlns:xlink="http://www.w3.org/1999/xlink" x="0px" y="0px"
	 width="960px" height="960px" viewBox="0 0 960 960" enable-background="new 0 0 960 960" xml:space="preserve">
<path fill="#ab3d3d" d="M821.781,620.531h-43.633V318.09l28.623,20.289c6.632,4.712,15.375,5.336,22.631,1.584
	c7.256-3.737,11.81-11.211,11.81-19.385V262.4c0-7.068-3.417-13.701-9.207-17.802l-133.846-94.87V56.953
	c0-12.056-9.773-21.815-21.817-21.815c-12.042,0-21.815,9.759-21.815,21.815v61.841L492.608,4.014
	c-7.561-5.352-17.67-5.352-25.218,0L128.023,244.599c-5.773,4.086-9.206,10.719-9.206,17.802v58.177
	c0,8.158,4.552,15.633,11.809,19.385c3.156,1.628,6.589,2.429,10.007,2.429c4.45,0,8.856-1.351,12.609-4.013l28.607-20.289v302.441
	h-43.631c-12.043,0-21.816,9.756-21.816,21.813c0,12.057,9.773,21.816,21.816,21.816h65.448h202.683h147.33h202.654h65.446
	c12.043,0,21.815-9.76,21.815-21.816C843.597,630.287,833.824,620.531,821.781,620.531z M575.48,620.531V373.093
	c0-12.057-9.773-21.815-21.814-21.815h-147.33c-12.043,0-21.818,9.758-21.818,21.815v247.438H225.482V292.07
	c0-1.57-0.174-3.083-0.495-4.552L480,106.738l255.012,180.765c-0.32,1.469-0.492,2.996-0.492,4.567v328.461H575.48L575.48,620.531z"
	/>
<text transform="matrix(1 0 0 1 136.501 876.9902)" fill="#ab3d3d" font-family="'TamilMN'" font-size="240.8945">Home</text>
</svg>
